<svg version="1.1" id="Layer_1" xmlns="http://www.w3.org/2000/svg" xmlns:xlink="http://www.w3.org/1999/xlink" x="0px" y="0px"
	 width="100%" viewBox="0 0 800 800" enable-background="new 0 0 800 800" xml:space="preserve">
<path fill="#2C3639" opacity="1.000000" stroke="none" 
	d="
M175.000000,1.000000 
	C383.636200,1.000000 592.272400,1.000000 800.954346,1.000000 
	C800.954346,267.597290 800.954346,534.194641 800.954346,800.895996 
	C534.441650,800.895996 267.883209,800.895996 1.000000,800.895996 
	C1.000000,592.638733 1.000000,384.277313 1.233810,174.982544 
	C7.723863,174.335892 13.980106,174.622604 20.702930,174.930695 
	C20.702930,181.977036 20.702930,188.745483 20.702930,195.887817 
	C27.947523,195.887817 34.714531,195.887817 41.717224,195.887817 
	C41.717224,207.687912 41.717224,219.103287 41.717224,231.026840 
	C32.963745,231.026840 24.387859,231.026840 15.942419,231.026840 
	C15.942419,245.506439 15.942419,259.477417 15.942419,274.031158 
	C24.706238,274.031158 33.247726,274.031158 42.167915,274.031158 
	C42.167915,301.708496 42.167915,328.802277 42.167915,355.740570 
	C47.006065,357.044830 46.073265,353.828583 46.074371,351.503540 
	C46.091938,314.507202 46.086754,277.510834 46.086765,240.514496 
	C46.086765,238.739792 46.086765,236.965073 46.086765,234.778458 
	C55.087364,234.778458 63.509979,234.778458 72.108513,234.778458 
	C72.108513,220.286560 72.108513,206.214920 72.108513,191.804077 
	C63.378616,191.804077 54.918278,191.804077 45.932671,191.804077 
	C45.932671,184.569000 45.932671,177.666290 45.932671,170.265106 
	C38.676003,170.265106 31.939148,170.265106 24.808084,170.265106 
	C24.808084,148.494324 24.808084,127.236549 24.808084,105.477188 
	C18.477291,105.477188 12.546308,105.477188 6.415995,105.477188 
	C6.415995,99.415199 6.415995,93.863937 6.415995,88.301605 
	C18.488850,88.301605 30.250937,88.301605 42.576126,88.301605 
	C42.576126,102.119637 42.576126,115.677704 42.576126,129.285355 
	C71.728172,129.285355 100.312378,129.285355 129.082306,129.285355 
	C129.082306,100.270538 129.082306,71.543411 129.082306,42.397327 
	C115.323563,42.397327 101.895866,42.397327 88.328758,42.397327 
	C88.328758,29.748920 88.328758,17.522362 88.328758,5.294325 
	C94.054848,5.294325 99.479828,5.294325 105.521225,5.294325 
	C105.521225,11.589555 105.521225,17.641569 105.521225,24.047722 
	C127.409622,24.047722 148.680267,24.047722 170.426010,24.047722 
	C170.426010,31.191412 170.426010,37.946053 170.426010,45.170448 
	C177.797379,45.170448 184.693802,45.170448 192.066986,45.170448 
	C192.066986,54.227295 192.066986,62.802052 192.066986,71.300636 
	C206.512497,71.300636 220.464661,71.300636 234.936768,71.300636 
	C234.936768,62.483017 234.936768,53.923733 234.936768,45.033855 
	C255.423218,45.033855 275.388489,45.033855 295.353790,45.033855 
	C315.476685,45.033855 335.599609,45.033855 356.086731,45.033855 
	C355.887604,43.348270 355.748749,42.172886 355.585907,40.794426 
	C328.224609,40.794426 301.269623,40.794426 273.915161,40.794426 
	C273.915161,32.120014 273.915161,23.689413 273.915161,15.150732 
	C259.286377,15.150732 245.062408,15.150732 230.445160,15.150732 
	C230.445160,23.915722 230.445160,32.318817 230.445160,40.690300 
	C218.787247,40.690300 207.528931,40.690300 195.889648,40.690300 
	C195.889648,33.662121 195.889648,26.903675 195.889648,19.742550 
	C188.734467,19.742550 181.959595,19.742550 175.000000,19.742550 
	C175.000000,13.223876 175.000000,7.111938 175.000000,1.000000 
M506.034607,465.662048 
	C507.045380,466.579926 508.056152,467.497833 509.345154,468.668396 
	C510.643921,467.194275 511.602661,466.106079 512.804016,464.916260 
	C513.043091,464.664124 513.282166,464.411987 514.077515,463.455231 
	C517.157288,460.590759 519.856628,461.701385 521.966309,464.561157 
	C523.665039,466.863770 525.158325,466.688751 527.627930,464.905945 
	C528.425781,464.020782 529.223572,463.135620 530.942261,462.080109 
	C536.423950,462.059967 541.907166,461.959778 547.386658,462.060120 
	C549.499817,462.098755 551.949585,462.030273 553.610046,463.048096 
	C555.080811,463.949615 556.011902,466.207001 556.457397,468.041595 
	C556.608276,468.663086 554.547729,469.821564 553.497742,470.734650 
	C552.335449,469.280029 551.184631,467.815887 549.998657,466.380920 
	C549.816895,466.160980 549.472412,466.075500 549.094360,465.868164 
	C548.773376,466.172607 548.086121,466.632538 548.150024,466.792999 
	C548.936462,468.765045 549.422852,471.864807 550.800598,472.346863 
	C552.672852,473.001862 556.361633,472.363647 557.252930,470.979919 
	C558.488586,469.061493 558.961304,465.002563 557.744202,463.550842 
	C556.041260,461.519836 552.562073,460.387665 549.698608,460.032166 
	C541.423035,459.004639 531.999268,463.099945 525.609375,454.204865 
	C525.481506,454.026855 524.987122,454.112244 524.658203,454.062927 
	C521.218994,456.218353 518.811401,462.701019 513.304688,456.560974 
	C513.118164,456.281158 512.869629,456.086456 512.030396,455.473633 
	C510.960602,454.531799 509.890808,453.589996 509.791779,453.502777 
	C505.350555,455.708099 501.700623,457.520477 497.125641,459.136200 
	C483.761078,459.178284 470.396484,459.220337 456.104553,459.091919 
	C408.790955,459.076904 361.477386,459.072998 314.163788,459.035522 
	C306.502686,459.029449 298.174896,460.970673 293.700134,451.618561 
	C290.602325,454.401093 288.345673,458.032684 285.643951,458.401184 
	C282.970856,458.765778 279.848572,455.836578 276.416016,454.094757 
	C273.332825,459.801941 267.576355,459.269318 261.892700,459.063812 
	C259.230743,458.967560 256.493408,458.680298 253.914978,459.155975 
	C251.050949,459.684387 248.016968,460.507019 245.626968,462.072021 
	C242.835175,463.900146 242.030365,467.375031 244.231186,469.954315 
	C245.667725,471.637848 248.595886,472.658142 250.901733,472.743958 
	C252.131256,472.789703 253.735809,470.370117 254.608063,468.758514 
	C254.970367,468.089142 253.862671,466.624176 253.706009,466.230652 
	C251.756897,467.963013 250.381790,469.419556 248.727463,470.409546 
	C248.471420,470.562836 245.951431,468.120575 246.164413,467.662537 
	C247.040283,465.778809 248.505112,464.143860 249.897018,462.542358 
	C250.257248,462.127869 251.150452,461.986694 251.780258,462.025055 
	C260.527710,462.557709 270.224426,458.087769 277.561310,467.653656 
	C283.824310,456.444611 288.458069,464.795959 292.248627,468.007721 
	C296.938782,465.601288 300.680695,462.109070 304.542816,461.970703 
	C321.680450,461.356720 338.852509,461.695831 356.012085,461.724640 
	C357.140320,461.726562 358.268097,462.016357 359.519897,462.189362 
	C352.839325,465.828369 346.692719,469.464142 340.283051,472.554321 
	C336.742706,474.261230 332.826904,475.375916 328.959320,476.162506 
	C325.444885,476.877319 323.114166,474.600098 322.568024,471.329712 
	C322.328674,469.896210 323.337982,467.695099 324.511322,466.753906 
	C325.530701,465.936249 327.906128,465.825989 329.071259,466.484344 
	C330.003113,467.010956 330.042450,469.155670 330.427521,470.595673 
	C330.637665,471.381500 330.743042,472.195374 330.895630,472.996582 
	C331.485779,472.980499 332.075897,472.964417 332.666046,472.948334 
	C332.666046,470.731201 333.429535,468.057007 332.452454,466.424805 
	C331.465210,464.775635 328.593689,463.093445 326.836426,463.356293 
	C324.572418,463.694946 321.684357,465.524994 320.751404,467.506622 
	C319.817810,469.489624 320.615540,472.552643 321.320160,474.946289 
	C321.767578,476.466248 323.430389,477.628479 324.548126,478.951141 
	C324.399445,479.509644 324.250793,480.068115 324.102112,480.626617 
	C319.313721,480.148315 314.424316,480.110382 309.771088,479.042847 
	C306.459259,478.283051 306.499908,476.597717 309.562744,474.020905 
	C309.884216,475.431763 310.168427,476.679016 310.452637,477.926270 
	C310.859253,477.962891 311.265869,477.999512 311.672485,478.036133 
	C312.020416,476.650665 313.051453,474.886292 312.545624,473.974335 
	C311.894501,472.800385 309.976227,471.642548 308.668854,471.711548 
	C307.351105,471.781097 304.996063,473.441315 305.055023,474.264252 
	C305.214996,476.497528 305.811615,479.386841 307.354187,480.657135 
	C309.220551,482.194092 312.200989,482.812408 314.759766,482.998749 
	C325.583099,483.786865 334.909698,479.506256 343.682983,473.747803 
	C352.278961,468.105713 361.395111,463.486877 371.768890,462.902832 
	C385.881287,462.108368 400.036499,462.080963 414.172668,461.700012 
	C427.003540,461.354248 439.363281,463.360229 451.544556,469.406525 
	C458.062744,473.003662 464.303833,477.321655 471.187592,479.967865 
	C476.609344,482.052002 482.835876,482.810913 488.679993,482.710236 
	C491.689819,482.658386 494.848053,479.687012 497.465912,477.474701 
	C498.036713,476.992371 497.084076,473.557007 495.913391,472.524506 
	C494.959442,471.683197 491.871399,471.734406 491.113190,472.600769 
	C490.244507,473.593231 490.894257,475.922699 490.937195,477.670013 
	C490.938599,477.727509 491.516541,477.770874 492.190643,477.879761 
	C492.342987,476.595703 492.490814,475.349396 492.690613,473.665405 
	C496.175873,475.578888 495.980194,477.668610 493.289795,478.860779 
	C488.254395,481.092072 482.969574,481.621429 477.539246,479.109131 
	C483.484528,472.783447 484.184082,468.869843 480.269836,465.152191 
	C477.373352,462.401184 472.971588,462.526978 470.473267,465.432159 
	C468.294983,467.965179 468.641479,470.237610 471.668427,472.728394 
	C471.807648,472.236206 471.907410,471.782257 472.063599,471.348602 
	C472.709595,469.554901 472.908813,466.919617 474.167908,466.230743 
	C475.289154,465.617279 478.872467,466.850128 479.106964,467.816895 
	C479.610016,469.890778 479.407196,473.541473 478.127563,474.329926 
	C475.920288,475.690002 472.272003,476.419708 469.937134,475.537659 
	C463.464722,473.092621 457.357452,469.680908 450.638519,466.160645 
	C447.988098,464.991547 445.337708,463.822449 442.687286,462.653351 
	C442.749512,462.220612 442.811707,461.787872 442.873932,461.355133 
	C447.595795,461.355133 452.317627,461.355133 457.954407,461.538818 
	C471.321655,461.442047 484.688904,461.345306 498.835266,461.442780 
	C500.563263,461.990875 502.291290,462.539001 504.115509,463.663361 
	C504.694061,464.097931 505.272644,464.532501 506.034607,465.662048 
M475.132477,340.102295 
	C469.973328,340.102295 464.814178,340.102295 459.655029,340.102295 
	C459.630096,339.805634 459.605133,339.508972 459.580200,339.212311 
	C461.141632,338.419617 462.703094,337.626892 465.008179,336.657867 
	C466.696533,335.656891 468.309967,334.490753 470.086792,333.684875 
	C476.304962,330.864777 482.462280,327.841003 488.876495,325.548615 
	C492.735840,324.169250 495.861450,326.310028 496.723755,330.335663 
	C497.026489,331.748810 496.063416,333.985931 494.923401,334.987305 
	C493.942444,335.848907 491.416779,336.166168 490.434021,335.484497 
	C489.358643,334.738586 489.223785,332.583099 488.776642,331.014130 
	C488.619537,330.462769 488.751587,329.829041 488.751587,328.991913 
	C485.649689,331.291382 485.157318,334.092926 487.169006,336.399261 
	C489.519196,339.093750 494.516327,339.311951 496.984039,336.459839 
	C498.192810,335.062775 499.585388,332.652893 499.149017,331.240936 
	C498.147156,327.999084 496.074585,325.088104 493.980408,321.194733 
	C498.797180,321.490234 503.903198,321.313538 508.791168,322.261353 
	C512.565979,322.993317 512.807190,325.271210 509.783508,328.018066 
	C509.333954,326.520538 508.934204,325.188904 508.534454,323.857300 
	C507.986328,323.920197 507.438202,323.983093 506.890076,324.045990 
	C507.051575,325.682098 506.628082,327.941498 507.530365,328.788269 
	C508.539886,329.735657 511.324158,330.166962 512.296509,329.437317 
	C513.565552,328.485168 514.657898,325.995453 514.340271,324.478363 
	C513.435364,320.155792 509.598633,319.301544 505.850067,318.993042 
	C496.788757,318.247406 488.308258,320.273102 480.482117,324.874481 
	C474.936066,328.135284 469.472900,331.537048 463.208038,334.952484 
	C456.629395,336.478546 450.050720,338.004639 442.926208,338.996368 
	C442.734314,338.829041 442.542419,338.661682 442.616119,337.873810 
	C442.373016,335.500061 442.836792,332.701965 441.724945,330.849731 
	C439.957764,327.905853 436.762512,327.724121 433.861725,329.659393 
	C431.393707,331.305908 431.384735,333.295380 433.671021,336.010101 
	C433.902466,335.537170 434.032898,335.073242 434.313354,334.733002 
	C435.324921,333.505676 436.229858,332.062927 437.523712,331.271606 
	C437.924316,331.026642 440.250214,332.577942 440.266541,333.337585 
	C440.300720,334.925934 439.692810,336.756439 438.754761,338.060211 
	C438.086395,338.989166 436.489227,339.558777 435.237305,339.708038 
	C427.972198,340.574158 421.127075,339.232605 414.704041,335.644958 
	C418.611176,327.832886 418.663147,323.371460 414.752869,320.505188 
	C411.613678,318.204193 407.919586,317.724121 405.225586,320.739227 
	C399.364258,327.299103 406.789978,330.944397 409.104156,335.626709 
	C403.721344,341.292847 397.739777,340.522858 393.221832,335.426575 
	C394.668762,333.631653 396.742432,332.030121 397.423492,329.968506 
	C398.274567,327.392181 399.019958,323.841248 397.865051,321.826538 
	C396.864258,320.080658 392.667206,318.613892 390.753296,319.334747 
	C388.320160,320.251099 385.567291,323.291290 385.135773,325.792542 
	C384.603210,328.879211 386.316132,332.353333 387.155090,336.088959 
	C380.967010,339.163422 373.795441,341.194550 366.215637,339.276550 
	C364.467041,338.834076 363.147278,336.022339 362.098114,334.051697 
	C361.884827,333.651031 363.650330,331.448212 364.720703,331.250244 
	C368.222351,330.602692 367.762878,333.799835 368.511749,335.785461 
	C368.543854,335.870575 368.819000,335.864044 370.282410,336.190735 
	C370.028290,334.101746 370.444794,331.549622 369.454468,330.758606 
	C367.894714,329.512604 365.126160,328.542572 363.333405,329.060822 
	C358.253296,330.529449 359.123627,334.981934 359.729614,339.240265 
	C358.016327,339.240265 356.548767,339.392914 355.122040,339.215912 
	C344.473480,337.894989 334.978394,333.673462 326.266418,327.549988 
	C317.538849,321.415558 307.950714,318.023285 297.205872,319.029572 
	C294.537079,319.279510 291.505768,320.240387 289.556488,321.930328 
	C288.321014,323.001465 288.122681,326.240265 288.730988,328.088379 
	C289.074768,329.132965 292.353790,330.257538 293.683685,329.738770 
	C297.965637,328.068359 295.602234,325.073151 293.772247,321.928101 
	C299.117249,321.928101 303.798584,321.928101 309.660522,321.928101 
	C305.061432,325.776794 301.074921,328.945862 303.833374,333.973999 
	C305.019531,336.136169 308.311951,338.097809 310.785156,338.279785 
	C312.581909,338.412048 315.048218,335.760864 316.338074,333.779266 
	C316.974365,332.801666 315.624146,330.531067 315.014038,328.252594 
	C313.628418,331.615753 313.103851,333.946411 311.753082,335.603790 
	C311.269135,336.197601 308.127869,335.690735 307.382629,334.749451 
	C306.342712,333.435944 305.473450,330.437683 306.199371,329.591492 
	C307.816132,327.706909 310.343597,325.967468 312.733917,325.567688 
	C314.971619,325.193420 317.711731,326.226349 319.881195,327.328247 
	C327.653442,331.275635 335.277374,335.515076 343.738586,340.064056 
	C329.342224,340.064056 315.737701,339.777771 302.153656,340.181122 
	C295.034119,340.392517 288.661041,339.878448 284.183380,333.522522 
	C284.051422,333.335236 283.585083,333.383453 283.106140,333.288422 
	C280.728333,335.440826 278.464600,339.120178 275.782623,339.455658 
	C273.141449,339.786041 270.076324,336.727264 267.155487,335.132721 
	C261.324036,340.056213 254.688126,341.687531 249.313828,338.859283 
	C247.785019,338.054810 246.753601,335.795135 246.172989,333.985046 
	C245.978912,333.379974 247.897797,332.097137 248.850815,331.124115 
	C250.024689,332.565186 251.188904,334.014343 252.382233,335.439117 
	C252.573868,335.667908 252.895538,335.787781 254.392578,336.762177 
	C254.189026,334.249847 254.593048,332.248444 253.811584,330.974030 
	C251.891418,327.842621 248.817307,327.959595 245.937454,329.587646 
	C243.072189,331.207458 242.022568,335.986969 244.501984,338.298950 
	C246.653030,340.304749 249.804596,342.088196 252.648636,342.320404 
	C258.301971,342.782013 263.934204,342.442444 266.942200,347.524017 
	C270.355713,345.794220 273.399048,342.927124 275.903473,343.338776 
	C278.654694,343.791016 280.909607,347.262695 284.134613,350.076508 
	C288.778656,340.348358 297.389435,342.710815 305.178711,342.704468 
	C359.990082,342.659821 414.801544,342.693848 469.612976,342.679657 
	C471.764893,342.679108 473.916748,342.444977 476.979401,342.498199 
	C484.302032,342.527588 491.630798,342.755798 498.945618,342.530762 
	C506.345337,342.303101 513.613281,341.981659 518.528381,349.037231 
	C518.587891,349.122620 518.840637,349.073334 519.682129,349.143616 
	C523.949463,343.488403 529.012207,339.185577 535.092102,348.691406 
	C538.469299,342.980865 543.114868,342.364105 548.377625,342.457886 
	C551.028992,342.505127 553.988525,341.449615 556.309753,340.059570 
	C559.859375,337.933899 560.404358,332.346130 557.117737,330.330872 
	C555.204895,329.157959 551.906860,329.417419 549.578247,330.143188 
	C548.602600,330.447296 548.523804,333.629181 548.037231,335.502716 
	C548.553894,335.646973 549.070496,335.791229 549.587097,335.935486 
	C549.783997,335.529175 549.913269,335.068054 550.190002,334.726410 
	C551.188660,333.493347 552.069458,332.022278 553.358887,331.245728 
	C553.801392,330.979248 556.116699,332.433380 556.168335,333.196777 
	C556.275085,334.773834 555.896667,336.876587 554.863770,337.907013 
	C553.702820,339.065186 551.646790,339.564270 549.898193,339.851685 
	C544.103943,340.804138 538.621277,340.459045 535.554199,335.060516 
	C532.271973,336.898132 529.194214,340.046722 526.841736,339.575409 
	C523.940308,338.994141 521.642395,335.400482 518.963257,333.000732 
	C517.881042,333.937592 516.831116,334.549652 516.190247,335.452240 
	C513.277283,339.554352 509.353485,340.386047 504.507385,340.225250 
	C495.035614,339.911041 485.542877,340.229309 475.132477,340.102295 
M220.925980,500.101746 
	C214.607376,501.583679 211.366394,505.852112 210.479584,512.013306 
	C210.054688,514.965332 209.950546,517.984375 209.948502,520.973267 
	C209.917053,566.630493 209.912735,612.287659 209.933411,657.944885 
	C209.941437,675.659058 214.453903,680.101685 232.147858,679.996338 
	C248.663940,679.898010 253.269943,675.399048 253.324997,658.885193 
	C253.408325,633.890625 253.349854,608.895630 253.368973,583.900818 
	C253.370239,582.236267 253.517609,580.571777 253.657150,577.646545 
	C255.720413,580.204468 256.891510,581.575989 257.976105,583.012817 
	C280.254364,612.524902 302.603729,641.983887 324.719574,671.617249 
	C328.778351,677.055603 333.735291,679.770386 340.326202,679.904358 
	C343.157684,679.961853 345.992523,680.026306 348.822479,679.954895 
	C363.049103,679.596069 367.974823,674.614685 367.990112,660.376160 
	C368.031769,621.550903 368.019775,582.725647 368.014832,543.900391 
	C368.013641,534.569336 368.178467,525.231018 367.868530,515.909180 
	C367.508453,505.079224 364.121552,501.482391 353.425964,499.648926 
	C351.789734,499.368500 350.125854,499.164581 348.468353,499.106140 
	C329.463593,498.435944 324.546967,503.093933 324.505615,522.006958 
	C324.451294,546.835083 324.495178,571.663330 324.478394,596.491516 
	C324.477234,598.215454 324.323456,599.939209 324.177185,602.983154 
	C321.660706,599.755981 319.921417,597.617004 318.279327,595.405823 
	C297.426636,567.325928 276.427124,539.352600 255.845093,511.075500 
	C249.785248,502.750061 242.347458,498.536560 232.173157,499.088287 
	C228.690796,499.277191 225.219833,499.675873 220.925980,500.101746 
M347.291595,260.767548 
	C382.517670,206.280014 353.345428,135.608078 289.778656,122.846046 
	C277.054138,120.291405 263.600739,121.190598 250.474335,120.870560 
	C240.157028,120.619011 229.807388,120.585838 219.505936,121.114738 
	C209.859268,121.610023 205.550339,126.270584 204.537064,135.871796 
	C204.362595,137.524918 204.291519,139.196365 204.291031,140.859375 
	C204.277405,187.171448 204.220383,233.483627 204.308548,279.795532 
	C204.341492,297.108398 209.058914,301.734161 226.281693,301.838654 
	C240.274765,301.923553 254.270798,301.705170 268.261871,301.892761 
	C301.705109,302.341187 327.654449,288.397919 347.291595,260.767548 
M597.715149,254.500122 
	C597.714905,218.174881 597.735168,181.849594 597.685303,145.524429 
	C597.679810,141.535263 597.321594,137.543167 597.039551,133.558624 
	C596.656677,128.148773 593.870850,124.189110 588.658813,122.999695 
	C583.372742,121.793419 577.852722,121.055283 572.438904,121.076210 
	C558.907593,121.128540 554.044250,126.124741 553.944885,139.544495 
	C553.826355,155.540085 553.903320,171.537109 553.895874,187.533524 
	C553.895020,189.299973 553.895813,191.066422 553.895813,192.888214 
	C531.774536,192.888214 510.342194,192.888214 488.361938,192.888214 
	C488.361938,190.839294 488.367950,189.047318 488.360962,187.255402 
	C488.296082,170.593857 488.423950,153.928406 488.090912,137.272202 
	C487.884125,126.930885 484.134277,123.041466 473.909332,121.345924 
	C471.786255,120.993874 469.594818,120.975349 467.433044,120.948227 
	C449.098206,120.718147 444.687775,125.037209 444.675385,143.428711 
	C444.645020,188.418671 444.657837,233.408646 444.678223,278.398621 
	C444.679596,281.394958 444.770935,284.401428 445.026581,287.385529 
	C445.688995,295.117584 449.239166,299.448517 456.815735,300.754303 
	C461.527924,301.566467 466.461823,301.949799 471.209442,301.534271 
	C484.240295,300.393829 488.089142,296.171173 488.261780,283.048737 
	C488.470032,267.221558 488.343750,251.389999 488.361694,235.560349 
	C488.363708,233.772354 488.361969,231.984344 488.361969,230.128723 
	C510.506165,230.128723 532.042358,230.128723 553.897522,230.128723 
	C553.897522,246.680511 553.876465,262.820709 553.903137,278.960815 
	C553.933655,297.387817 559.061646,302.336761 577.513367,301.815887 
	C578.677368,301.783020 579.845642,301.713562 581.000183,301.567993 
	C593.453369,299.997864 597.224182,296.068634 597.601257,283.491699 
	C597.880798,274.168427 597.694092,264.831177 597.715149,254.500122 
M453.922455,577.500000 
	C453.922668,603.828552 453.913055,630.157166 453.926361,656.485718 
	C453.936157,675.880310 458.757782,680.493591 478.397980,679.967957 
	C492.559357,679.588989 497.556519,674.638306 497.697723,660.381042 
	C497.842987,645.718323 497.735687,631.053284 497.762054,616.389221 
	C497.764893,614.822144 497.922607,613.255371 498.064240,610.670593 
	C503.984741,617.404968 509.228943,623.356995 514.458984,629.321472 
	C527.311523,643.978821 540.077942,658.712646 553.031494,673.280212 
	C563.297058,684.824829 569.378906,685.204468 581.498352,675.536499 
	C596.155334,663.843994 597.152466,656.653564 584.421875,643.054138 
	C568.487183,626.031921 551.880066,609.639160 535.566650,592.971436 
	C534.326233,591.704041 533.112610,590.410400 531.886597,589.128906 
	C532.385986,589.438538 532.885376,589.748108 533.384766,590.057739 
	C546.097168,576.644470 558.867249,563.285034 571.496582,549.794006 
	C577.412720,543.474182 583.440796,537.197021 588.728577,530.366760 
	C595.399536,521.749878 594.645386,515.722717 587.027466,507.854828 
	C585.870300,506.659637 584.641479,505.526123 583.379333,504.441467 
	C569.539124,492.547974 563.199097,493.069305 551.261292,506.789246 
	C535.621582,524.763733 519.889099,542.657532 504.191254,560.581482 
	C502.379608,562.650024 500.534576,564.689392 497.750885,567.812866 
	C497.750885,564.655579 497.769257,562.906555 497.748047,561.158081 
	C497.549866,544.837524 497.543732,528.510925 497.045166,512.199463 
	C496.842529,505.570648 493.426208,501.648865 486.948822,500.283112 
	C482.120392,499.264984 477.044525,498.975891 472.092804,499.073029 
	C459.002625,499.329773 454.042755,504.434113 453.971405,517.510681 
	C453.864105,537.173279 453.930115,556.836853 453.922455,577.500000 
M152.277542,388.041870 
	C151.397873,384.196899 150.518204,380.351898 149.655884,376.582764 
	C147.424591,376.582764 145.682968,376.582764 143.387985,376.582764 
	C147.518112,394.614410 151.550064,412.217438 155.570404,429.769775 
	C158.651138,429.769775 161.249390,429.769775 163.991440,429.769775 
	C167.706970,416.452240 171.369141,403.325989 175.031296,390.199768 
	C175.353836,390.234711 175.676376,390.269653 175.998917,390.304626 
	C179.684204,403.527222 183.369492,416.749817 186.973770,429.681732 
	C190.183975,429.681732 192.775864,429.681732 195.504150,429.681732 
	C199.553482,411.829620 203.536240,394.271088 207.548248,376.583557 
	C201.547958,376.182953 201.503448,376.172729 200.406326,380.947754 
	C198.543930,389.053436 196.771225,397.179718 194.907440,405.285065 
	C193.785202,410.165527 192.561996,415.022766 191.041092,421.308258 
	C190.279205,419.139282 190.030563,418.548859 189.862701,417.936310 
	C186.346466,405.104858 182.909302,392.250732 179.223083,379.468414 
	C178.851303,378.179230 176.885864,376.381195 175.836472,376.491943 
	C174.405441,376.642914 172.431503,378.146210 171.940384,379.517426 
	C170.318909,384.044525 169.260910,388.773376 167.984207,393.424072 
	C165.565063,402.236420 163.144257,411.048309 160.724136,419.860413 
	C160.344482,419.841064 159.964813,419.821716 159.585159,419.802368 
	C157.232849,409.482697 154.880539,399.163025 152.277542,388.041870 
M267.836090,425.478973 
	C279.079834,435.416290 293.756287,431.231293 296.517273,416.896484 
	C297.492706,411.832245 297.186646,406.206207 296.099548,401.129211 
	C294.192841,392.224152 287.853455,387.822571 278.855225,389.086365 
	C274.735687,389.664978 270.896210,392.237762 266.466461,394.100983 
	C266.466461,387.482178 266.466461,380.461273 266.466461,373.427124 
	C264.181763,373.427124 262.579010,373.427124 260.759949,373.427124 
	C260.759949,392.373566 260.759949,411.055267 260.759949,429.697449 
	C262.885651,429.697449 264.633118,429.697449 266.317444,429.697449 
	C266.611084,428.070953 266.844177,426.779785 267.836090,425.478973 
M341.769775,375.700287 
	C341.105164,375.751343 340.438446,375.783539 339.776215,375.856293 
	C331.387787,376.778198 326.308533,381.105713 325.492340,388.018555 
	C324.637726,395.256470 328.676178,400.892059 336.802887,403.482910 
	C340.284607,404.592926 343.917023,405.225830 347.411377,406.301605 
	C353.802643,408.269135 356.134735,411.578094 355.321014,417.146667 
	C354.600525,422.077179 351.025146,424.661316 344.781311,425.007538 
	C337.557404,425.408112 331.970245,422.442200 327.750763,416.189301 
	C326.169189,418.179565 325.064941,419.569092 324.033813,420.866669 
	C329.190582,429.081268 339.002258,432.540070 349.694672,430.144867 
	C358.310669,428.214813 362.773010,422.205383 361.974121,413.472076 
	C361.364868,406.812408 357.223511,403.027954 351.248718,401.064240 
	C346.675415,399.561157 341.932495,398.574371 337.358643,397.072815 
	C333.396393,395.772003 331.569305,392.797943 331.923065,388.580872 
	C332.272797,384.411804 334.954559,382.586182 338.691101,381.698822 
	C345.523499,380.076294 351.379364,382.114349 356.638794,386.839355 
	C357.826416,385.139313 358.752747,383.813354 359.701813,382.454803 
	C355.266327,376.519104 349.076324,375.733521 341.769775,375.700287 
M240.445160,411.135529 
	C242.608810,411.131958 244.822998,411.400482 246.915176,411.011963 
	C247.988098,410.812744 249.501846,409.566864 249.692871,408.577148 
	C251.298111,400.261230 246.748581,392.105743 239.411392,389.689606 
	C230.515427,386.760071 220.852921,390.201843 217.166855,398.109009 
	C213.542618,405.883545 213.541275,414.038147 217.187256,421.776794 
	C220.702164,429.237213 227.558426,431.229034 235.177994,430.763397 
	C241.467255,430.379120 246.651093,427.953644 249.119354,421.283966 
	C247.669693,420.426575 246.433563,419.695465 245.251465,418.996307 
	C240.014923,424.996399 234.306274,426.770264 228.399582,424.416351 
	C223.586716,422.498291 221.187576,417.968964 221.547974,411.135529 
	C227.505737,411.135529 233.484055,411.135529 240.445160,411.135529 
M393.608551,430.340851 
	C401.386139,428.813568 406.064178,423.903259 407.152802,416.313538 
	C407.843140,411.500916 407.937500,406.250946 406.755096,401.588745 
	C403.456909,388.584106 385.848938,384.164612 376.151733,393.536804 
	C370.247986,399.242676 368.512329,411.968597 372.447693,420.694580 
	C375.841980,428.220825 382.726929,431.555115 393.608551,430.340851 
M536.134705,403.812012 
	C536.095337,407.458832 535.717834,411.140106 536.085632,414.745392 
	C536.895142,422.680084 541.774414,428.271637 548.945557,430.093536 
	C563.513062,433.794464 573.573792,424.801758 573.129150,408.477173 
	C572.833130,397.607422 567.242615,390.341003 558.185669,389.053833 
	C546.970886,387.460022 539.805115,392.034485 536.134705,403.812012 
M473.435516,411.499329 
	C473.435516,404.376190 473.435516,397.253021 473.435516,389.566620 
	C471.114746,389.670380 469.280548,389.752380 467.273010,389.842102 
	C467.273010,392.436615 467.297119,394.429626 467.268524,396.421906 
	C467.177887,402.743958 467.448181,409.101257 466.862427,415.378052 
	C466.221558,422.246033 461.141205,425.945007 454.356781,425.328796 
	C448.919403,424.834961 446.996429,422.039368 446.975525,414.484955 
	C446.953033,406.360748 446.970459,398.236389 446.970459,389.804565 
	C444.839691,389.804565 443.111023,389.804565 440.982391,389.804565 
	C440.982391,399.324219 440.786743,408.612274 441.033905,417.888519 
	C441.317200,428.521332 451.377930,434.290436 461.011353,429.414124 
	C463.231598,428.290253 465.042847,426.358398 467.381073,424.534027 
	C467.662567,426.620789 467.875580,428.199890 468.081146,429.723816 
	C469.936920,429.723816 471.524750,429.723816 473.435211,429.723816 
	C473.435211,423.790009 473.435211,418.144104 473.435516,411.499329 
M611.932617,420.460266 
	C611.932617,423.569794 611.932617,426.679321 611.932617,430.065887 
	C614.314514,429.939819 616.038574,429.848541 617.879517,429.751099 
	C617.879517,420.081482 618.163330,410.918762 617.799500,401.781830 
	C617.437500,392.691864 612.662842,388.210205 603.574585,389.077881 
	C599.172913,389.498108 594.983948,392.146759 590.734741,393.772736 
	C590.656006,393.168610 590.447693,391.569611 590.217468,389.802063 
	C588.382263,389.802063 586.815491,389.802063 585.159546,389.802063 
	C585.159546,403.328827 585.159546,416.555206 585.159546,429.792023 
	C587.121887,429.792023 588.734558,429.792023 590.248169,429.792023 
	C590.499756,429.291992 590.768372,429.005096 590.771545,428.715271 
	C590.829285,423.384399 590.704529,418.046570 590.937683,412.724182 
	C591.111023,408.766846 591.182617,404.662750 592.301331,400.923767 
	C593.824585,395.832764 599.869385,393.118683 605.366882,394.208038 
	C610.813538,395.287384 611.832520,399.357239 611.904419,403.975891 
	C611.984863,409.140778 611.929138,414.307800 611.932617,420.460266 
M644.160400,393.994965 
	C647.162964,395.160583 650.165466,396.326172 653.506287,397.623108 
	C654.233337,396.833649 655.222900,395.759064 656.185425,394.713867 
	C651.901245,389.340698 645.889893,387.552460 638.012817,389.152679 
	C632.435730,390.285645 628.989197,393.773865 628.585144,398.694275 
	C628.142090,404.088654 630.747192,408.051117 636.399109,410.035645 
	C639.684631,411.189331 643.106628,411.960052 646.478943,412.859406 
	C649.742615,413.729858 651.919861,415.642975 651.663696,419.176605 
	C651.394043,422.895905 648.881531,424.612030 645.345764,425.083557 
	C639.468933,425.867218 634.484009,424.304596 630.910034,418.855835 
	C629.247986,420.707947 628.088379,422.000183 626.863647,423.364990 
	C631.935059,430.111542 638.628357,431.426422 645.867310,430.624603 
	C653.309448,429.800293 657.492188,425.638855 657.877930,419.459442 
	C658.268677,413.200348 654.684509,409.037201 647.228577,407.101715 
	C644.493713,406.391785 641.726501,405.790863 639.025146,404.971741 
	C635.965271,404.043976 633.675903,401.773804 634.823853,398.729614 
	C635.570679,396.749176 638.337097,395.433197 640.377319,394.090851 
	C641.083984,393.625916 642.328308,393.978210 644.160400,393.994965 
M495.385376,400.504089 
	C495.385376,398.731323 495.385376,396.958557 495.385376,394.650208 
	C499.925598,394.650208 503.835693,394.650208 508.304413,394.650208 
	C508.212860,392.588898 508.146606,391.097015 508.058228,389.107178 
	C503.564697,389.107178 499.652527,389.107178 495.657196,389.107178 
	C495.456116,385.841461 495.286957,383.094238 495.091614,379.921417 
	C492.930359,380.374756 491.197479,380.738220 489.404297,381.114319 
	C489.250671,383.983276 489.112305,386.567413 488.977356,389.087860 
	C486.497925,389.340057 484.544922,389.538727 482.657776,389.730713 
	C480.462402,396.692230 486.597443,393.507019 488.675140,395.049530 
	C488.835846,395.417145 489.078827,395.715637 489.081268,396.016083 
	C489.141632,403.498779 489.055420,410.984772 489.245789,418.463776 
	C489.499969,428.450317 496.319824,433.117798 505.788330,430.111450 
	C509.958710,428.787354 510.285950,426.802979 507.457184,423.822723 
	C498.055176,426.915924 495.429535,425.075806 495.389557,415.473328 
	C495.370178,410.816406 495.385437,406.159393 495.385376,400.504089 
M419.221558,405.498840 
	C419.228760,410.657776 419.058136,415.824554 419.284485,420.973846 
	C419.632355,428.889099 424.289124,432.147461 432.084991,430.179016 
	C432.355347,430.110779 432.556519,429.768555 433.055786,429.309723 
	C432.834167,428.082520 432.581451,426.683014 432.291534,425.077545 
	C426.152191,426.252716 425.346771,422.825378 425.391693,418.159027 
	C425.518158,405.013123 425.444794,391.865234 425.423767,378.718140 
	C425.420959,376.964417 425.265259,375.210968 425.179077,373.431396 
	C423.018890,373.431396 421.420502,373.431396 419.221619,373.431396 
	C419.221619,383.953918 419.221619,394.226593 419.221558,405.498840 
M518.138855,398.582886 
	C518.138855,408.986267 518.138855,419.389648 518.138855,429.831238 
	C520.547974,429.831238 522.181274,429.831238 523.989990,429.831238 
	C523.989990,416.402222 523.989990,403.159485 523.989990,389.850311 
	C521.984314,389.850311 520.247498,389.850311 518.138855,389.850311 
	C518.138855,392.678925 518.138855,395.147034 518.138855,398.582886 
M522.123352,373.328705 
	C519.199097,373.141846 516.942261,374.355377 517.170837,377.367767 
	C517.286194,378.887299 518.966370,380.971466 520.410400,381.491699 
	C521.576416,381.911774 524.793640,380.305267 524.764893,379.710815 
	C524.664673,377.640503 523.548950,375.619324 522.123352,373.328705 
z"/>
<path fill="#F0F1F1" opacity="1.000000" stroke="none" 
	d="
M174.531342,1.000000 
	C175.000000,7.111938 175.000000,13.223876 175.000000,19.742550 
	C181.959595,19.742550 188.734467,19.742550 195.889648,19.742550 
	C195.889648,26.903675 195.889648,33.662121 195.889648,40.690300 
	C207.528931,40.690300 218.787247,40.690300 230.445160,40.690300 
	C230.445160,32.318817 230.445160,23.915722 230.445160,15.150732 
	C245.062408,15.150732 259.286377,15.150732 273.915161,15.150732 
	C273.915161,23.689413 273.915161,32.120014 273.915161,40.794426 
	C301.269623,40.794426 328.224609,40.794426 355.585907,40.794426 
	C355.748749,42.172886 355.887604,43.348270 356.086731,45.033855 
	C335.599609,45.033855 315.476685,45.033855 295.353790,45.033855 
	C275.388489,45.033855 255.423218,45.033855 234.936768,45.033855 
	C234.936768,53.923733 234.936768,62.483017 234.936768,71.300636 
	C220.464661,71.300636 206.512497,71.300636 192.066986,71.300636 
	C192.066986,62.802052 192.066986,54.227295 192.066986,45.170448 
	C184.693802,45.170448 177.797379,45.170448 170.426010,45.170448 
	C170.426010,37.946053 170.426010,31.191412 170.426010,24.047722 
	C148.680267,24.047722 127.409622,24.047722 105.521225,24.047722 
	C105.521225,17.641569 105.521225,11.589555 105.521225,5.294325 
	C99.479828,5.294325 94.054848,5.294325 88.328758,5.294325 
	C88.328758,17.522362 88.328758,29.748920 88.328758,42.397327 
	C101.895866,42.397327 115.323563,42.397327 129.082306,42.397327 
	C129.082306,71.543411 129.082306,100.270538 129.082306,129.285355 
	C100.312378,129.285355 71.728172,129.285355 42.576126,129.285355 
	C42.576126,115.677704 42.576126,102.119637 42.576126,88.301605 
	C30.250937,88.301605 18.488850,88.301605 6.415995,88.301605 
	C6.415995,93.863937 6.415995,99.415199 6.415995,105.477188 
	C12.546308,105.477188 18.477291,105.477188 24.808084,105.477188 
	C24.808084,127.236549 24.808084,148.494324 24.808084,170.265106 
	C31.939148,170.265106 38.676003,170.265106 45.932671,170.265106 
	C45.932671,177.666290 45.932671,184.569000 45.932671,191.804077 
	C54.918278,191.804077 63.378616,191.804077 72.108513,191.804077 
	C72.108513,206.214920 72.108513,220.286560 72.108513,234.778458 
	C63.509979,234.778458 55.087364,234.778458 46.086765,234.778458 
	C46.086765,236.965073 46.086765,238.739792 46.086765,240.514496 
	C46.086754,277.510834 46.091938,314.507202 46.074371,351.503540 
	C46.073265,353.828583 47.006065,357.044830 42.167915,355.740570 
	C42.167915,328.802277 42.167915,301.708496 42.167915,274.031158 
	C33.247726,274.031158 24.706238,274.031158 15.942419,274.031158 
	C15.942419,259.477417 15.942419,245.506439 15.942419,231.026840 
	C24.387859,231.026840 32.963745,231.026840 41.717224,231.026840 
	C41.717224,219.103287 41.717224,207.687912 41.717224,195.887817 
	C34.714531,195.887817 27.947523,195.887817 20.702930,195.887817 
	C20.702930,188.745483 20.702930,181.977036 20.702930,174.930695 
	C13.980106,174.622604 7.723863,174.335892 1.233810,174.524597 
	C1.000000,144.979111 1.000000,114.958214 1.424739,84.702858 
	C3.970966,84.300980 6.091871,83.997932 8.214038,83.988831 
	C19.459173,83.940559 30.704628,83.966148 42.001698,83.966148 
	C42.001698,71.296272 42.001698,59.119076 42.001698,47.000000 
	C28.112885,47.000000 14.556442,47.000000 1.000000,47.000000 
	C1.000000,31.739954 1.000000,16.479908 1.000000,1.000000 
	C16.020180,1.000000 31.041431,1.000000 46.388973,1.449731 
	C46.715263,15.298470 46.715263,28.697479 46.715263,42.114647 
	C59.399975,42.114647 71.445160,42.114647 84.000000,42.114647 
	C84.000000,28.202736 84.000000,14.601368 84.000000,1.000000 
	C114.020897,1.000000 144.041794,1.000000 174.531342,1.000000 
M105.499603,125.118385 
	C111.936722,125.118385 118.373840,125.118385 124.861786,125.118385 
	C124.861786,98.671951 124.861786,72.788696 124.861786,46.874386 
	C112.492172,46.874386 100.435730,46.874386 87.880493,46.874386 
	C87.880493,60.724300 87.880493,74.281845 87.880493,88.161118 
	C73.945557,88.161118 60.511124,88.161118 46.915306,88.161118 
	C46.915306,100.554893 46.915306,112.610359 46.915306,125.118385 
	C66.279884,125.118385 85.389839,125.118385 105.499603,125.118385 
M83.893707,58.516739 
	C83.893707,54.620880 83.893707,50.725025 83.893707,46.932251 
	C71.069984,46.932251 59.031368,46.932251 46.851868,46.932251 
	C46.851868,59.356960 46.851868,71.419533 46.851868,83.659721 
	C59.233238,83.659721 71.415283,83.659721 83.893715,83.659721 
	C83.893715,75.407196 83.893715,67.458992 83.893707,58.516739 
M42.332447,29.497602 
	C42.332447,21.438314 42.332447,13.379028 42.332447,5.278341 
	C29.619034,5.278341 17.568201,5.278341 5.411136,5.278341 
	C5.411136,17.720675 5.411136,29.915571 5.411136,42.131290 
	C17.773149,42.131290 29.825159,42.131290 42.332455,42.131290 
	C42.332455,38.063175 42.332455,34.279419 42.332447,29.497602 
M20.703032,122.514984 
	C20.703032,118.389290 20.703032,114.263588 20.703032,109.844498 
	C15.633251,109.844498 11.080821,109.844498 6.486099,109.844498 
	C6.486099,130.149750 6.486099,150.165482 6.486099,170.155029 
	C11.321672,170.155029 15.756741,170.155029 20.703424,170.155029 
	C20.703424,154.409454 20.703424,138.960373 20.703032,122.514984 
M133.500015,5.022681 
	C125.577980,5.022681 117.655945,5.022681 109.906143,5.022681 
	C109.906143,10.269800 109.906143,14.842818 109.906143,19.494678 
	C130.173691,19.494678 150.060425,19.494678 170.091522,19.494678 
	C170.091522,14.602657 170.091522,10.020504 170.091522,5.022681 
	C158.065536,5.022681 146.282776,5.022681 133.500015,5.022681 
M228.515671,45.036045 
	C217.766251,45.036045 207.016830,45.036045 196.228638,45.036045 
	C196.228638,52.642868 196.228638,59.703686 196.228638,66.736191 
	C207.839142,66.736191 219.177551,66.736191 230.722412,66.736191 
	C230.722412,60.868801 230.811493,55.386059 230.667480,49.909443 
	C230.624939,48.291622 229.924393,46.691109 228.515671,45.036045 
M61.448463,195.874161 
	C56.489212,195.874161 51.529961,195.874161 46.330582,195.874161 
	C46.330582,207.696243 46.330582,219.095917 46.330582,230.500427 
	C53.640438,230.500427 60.716946,230.500427 67.778534,230.500427 
	C67.778534,218.819687 67.778534,207.435501 67.778534,195.874161 
	C65.741585,195.874161 64.085869,195.874161 61.448463,195.874161 
M19.906151,252.500153 
	C19.906151,258.082062 19.906151,263.663971 19.906151,269.251038 
	C27.563835,269.251038 34.507656,269.251038 41.617573,269.251038 
	C41.617573,257.728546 41.617573,246.383881 41.617573,235.239441 
	C34.213772,235.239441 27.157064,235.239441 19.906151,235.239441 
	C19.906151,240.896988 19.906151,246.198853 19.906151,252.500153 
M251.500671,18.874153 
	C246.080505,18.874153 240.660324,18.874153 235.163422,18.874153 
	C235.163422,26.499140 235.163422,33.547050 235.163422,40.624435 
	C246.754593,40.624435 258.086456,40.624435 269.466980,40.624435 
	C269.466980,33.328911 269.466980,26.380808 269.466980,18.874151 
	C263.716034,18.874151 258.108185,18.874151 251.500671,18.874153 
M24.864088,187.330566 
	C24.976654,188.743439 25.089218,190.156311 25.193727,191.468048 
	C31.013466,191.468048 36.385960,191.468048 41.724800,191.468048 
	C41.724800,185.707260 41.724800,180.296265 41.724800,174.795563 
	C36.084461,174.795563 30.703753,174.795563 24.864008,174.795563 
	C24.864008,178.816711 24.864008,182.590744 24.864088,187.330566 
M191.789154,39.145500 
	C191.789154,34.199966 191.789154,29.254431 191.789154,24.136959 
	C185.860764,24.136959 180.456116,24.136959 174.889145,24.136959 
	C174.889145,29.794710 174.889145,35.184921 174.889145,41.366966 
	C180.692703,40.922672 186.194778,40.501453 191.789154,39.145500 
z"/>
<path fill="#2D373A" opacity="1.000000" stroke="none" 
	d="
M83.531342,1.000000 
	C84.000000,14.601368 84.000000,28.202736 84.000000,42.114647 
	C71.445160,42.114647 59.399975,42.114647 46.715263,42.114647 
	C46.715263,28.697479 46.715263,15.298470 46.857632,1.449731 
	C59.020893,1.000000 71.041786,1.000000 83.531342,1.000000 
z"/>
<path fill="#2C3639" opacity="1.000000" stroke="none" 
	d="
M1.000000,47.468658 
	C14.556442,47.000000 28.112885,47.000000 42.001698,47.000000 
	C42.001698,59.119076 42.001698,71.296272 42.001698,83.966148 
	C30.704628,83.966148 19.459173,83.940559 8.214038,83.988831 
	C6.091871,83.997932 3.970966,84.300980 1.424739,84.234200 
	C1.000000,71.979103 1.000000,59.958210 1.000000,47.468658 
z"/>
<path fill="#DBD6C9" opacity="1.000000" stroke="none" 
	d="
M221.334808,500.040222 
	C225.219833,499.675873 228.690796,499.277191 232.173157,499.088287 
	C242.347458,498.536560 249.785248,502.750061 255.845093,511.075500 
	C276.427124,539.352600 297.426636,567.325928 318.279327,595.405823 
	C319.921417,597.617004 321.660706,599.755981 324.177185,602.983154 
	C324.323456,599.939209 324.477234,598.215454 324.478394,596.491516 
	C324.495178,571.663330 324.451294,546.835083 324.505615,522.006958 
	C324.546967,503.093933 329.463593,498.435944 348.468353,499.106140 
	C350.125854,499.164581 351.789734,499.368500 353.425964,499.648926 
	C364.121552,501.482391 367.508453,505.079224 367.868530,515.909180 
	C368.178467,525.231018 368.013641,534.569336 368.014832,543.900391 
	C368.019775,582.725647 368.031769,621.550903 367.990112,660.376160 
	C367.974823,674.614685 363.049103,679.596069 348.822479,679.954895 
	C345.992523,680.026306 343.157684,679.961853 340.326202,679.904358 
	C333.735291,679.770386 328.778351,677.055603 324.719574,671.617249 
	C302.603729,641.983887 280.254364,612.524902 257.976105,583.012817 
	C256.891510,581.575989 255.720413,580.204468 253.657150,577.646545 
	C253.517609,580.571777 253.370239,582.236267 253.368973,583.900818 
	C253.349854,608.895630 253.408325,633.890625 253.324997,658.885193 
	C253.269943,675.399048 248.663940,679.898010 232.147858,679.996338 
	C214.453903,680.101685 209.941437,675.659058 209.933411,657.944885 
	C209.912735,612.287659 209.917053,566.630493 209.948502,520.973267 
	C209.950546,517.984375 210.054688,514.965332 210.479584,512.013306 
	C211.366394,505.852112 214.607376,501.583679 221.334808,500.040222 
z"/>
<path fill="#DBD6C8" opacity="1.000000" stroke="none" 
	d="
M347.097839,261.071167 
	C327.654449,288.397919 301.705109,302.341187 268.261871,301.892761 
	C254.270798,301.705170 240.274765,301.923553 226.281693,301.838654 
	C209.058914,301.734161 204.341492,297.108398 204.308548,279.795532 
	C204.220383,233.483627 204.277405,187.171448 204.291031,140.859375 
	C204.291519,139.196365 204.362595,137.524918 204.537064,135.871796 
	C205.550339,126.270584 209.859268,121.610023 219.505936,121.114738 
	C229.807388,120.585838 240.157028,120.619011 250.474335,120.870560 
	C263.600739,121.190598 277.054138,120.291405 289.778656,122.846046 
	C353.345428,135.608078 382.517670,206.280014 347.097839,261.071167 
M250.700745,164.741913 
	C246.941406,164.666306 248.133972,167.533752 248.130005,169.388275 
	C248.069321,197.679535 248.085190,225.970963 248.098251,254.262360 
	C248.098755,255.377289 248.248886,256.492157 248.356277,257.981232 
	C256.770660,257.981232 264.892334,258.119202 273.007843,257.954742 
	C295.375031,257.501495 315.895660,239.275345 318.031403,218.104248 
	C320.617950,192.464249 305.984314,170.558990 281.989868,166.059555 
	C272.146332,164.213699 261.791901,165.092728 250.700745,164.741913 
z"/>
<path fill="#DBD6C8" opacity="1.000000" stroke="none" 
	d="
M597.715088,255.000137 
	C597.694092,264.831177 597.880798,274.168427 597.601257,283.491699 
	C597.224182,296.068634 593.453369,299.997864 581.000183,301.567993 
	C579.845642,301.713562 578.677368,301.783020 577.513367,301.815887 
	C559.061646,302.336761 553.933655,297.387817 553.903137,278.960815 
	C553.876465,262.820709 553.897522,246.680511 553.897522,230.128723 
	C532.042358,230.128723 510.506165,230.128723 488.361969,230.128723 
	C488.361969,231.984344 488.363708,233.772354 488.361694,235.560349 
	C488.343750,251.389999 488.470032,267.221558 488.261780,283.048737 
	C488.089142,296.171173 484.240295,300.393829 471.209442,301.534271 
	C466.461823,301.949799 461.527924,301.566467 456.815735,300.754303 
	C449.239166,299.448517 445.688995,295.117584 445.026581,287.385529 
	C444.770935,284.401428 444.679596,281.394958 444.678223,278.398621 
	C444.657837,233.408646 444.645020,188.418671 444.675385,143.428711 
	C444.687775,125.037209 449.098206,120.718147 467.433044,120.948227 
	C469.594818,120.975349 471.786255,120.993874 473.909332,121.345924 
	C484.134277,123.041466 487.884125,126.930885 488.090912,137.272202 
	C488.423950,153.928406 488.296082,170.593857 488.360962,187.255402 
	C488.367950,189.047318 488.361938,190.839294 488.361938,192.888214 
	C510.342194,192.888214 531.774536,192.888214 553.895813,192.888214 
	C553.895813,191.066422 553.895020,189.299973 553.895874,187.533524 
	C553.903320,171.537109 553.826355,155.540085 553.944885,139.544495 
	C554.044250,126.124741 558.907593,121.128540 572.438904,121.076210 
	C577.852722,121.055283 583.372742,121.793419 588.658813,122.999695 
	C593.870850,124.189110 596.656677,128.148773 597.039551,133.558624 
	C597.321594,137.543167 597.679810,141.535263 597.685303,145.524429 
	C597.735168,181.849594 597.714905,218.174881 597.715088,255.000137 
z"/>
<path fill="#DBD6C8" opacity="1.000000" stroke="none" 
	d="
M453.922455,577.000000 
	C453.930115,556.836853 453.864105,537.173279 453.971405,517.510681 
	C454.042755,504.434113 459.002625,499.329773 472.092804,499.073029 
	C477.044525,498.975891 482.120392,499.264984 486.948822,500.283112 
	C493.426208,501.648865 496.842529,505.570648 497.045166,512.199463 
	C497.543732,528.510925 497.549866,544.837524 497.748047,561.158081 
	C497.769257,562.906555 497.750885,564.655579 497.750885,567.812866 
	C500.534576,564.689392 502.379608,562.650024 504.191254,560.581482 
	C519.889099,542.657532 535.621582,524.763733 551.261292,506.789246 
	C563.199097,493.069305 569.539124,492.547974 583.379333,504.441467 
	C584.641479,505.526123 585.870300,506.659637 587.027466,507.854828 
	C594.645386,515.722717 595.399536,521.749878 588.728577,530.366760 
	C583.440796,537.197021 577.412720,543.474182 571.496582,549.794006 
	C558.867249,563.285034 546.097168,576.644470 533.384766,590.057739 
	C532.885376,589.748108 532.385986,589.438538 531.886597,589.128906 
	C533.112610,590.410400 534.326233,591.704041 535.566650,592.971436 
	C551.880066,609.639160 568.487183,626.031921 584.421875,643.054138 
	C597.152466,656.653564 596.155334,663.843994 581.498352,675.536499 
	C569.378906,685.204468 563.297058,684.824829 553.031494,673.280212 
	C540.077942,658.712646 527.311523,643.978821 514.458984,629.321472 
	C509.228943,623.356995 503.984741,617.404968 498.064240,610.670593 
	C497.922607,613.255371 497.764893,614.822144 497.762054,616.389221 
	C497.735687,631.053284 497.842987,645.718323 497.697723,660.381042 
	C497.556519,674.638306 492.559357,679.588989 478.397980,679.967957 
	C458.757782,680.493591 453.936157,675.880310 453.926361,656.485718 
	C453.913055,630.157166 453.922668,603.828552 453.922455,577.000000 
z"/>
<path fill="#DFAA55" opacity="1.000000" stroke="none" 
	d="
M443.472076,339.530731 
	C450.050720,338.004639 456.629395,336.478546 463.646851,335.406250 
	C464.145294,336.184753 464.204926,336.509460 464.264526,336.834198 
	C462.703094,337.626892 461.141632,338.419617 459.580200,339.212311 
	C459.605133,339.508972 459.630096,339.805634 459.655029,340.102295 
	C464.814178,340.102295 469.973328,340.102295 475.591278,340.448486 
	C476.056274,341.303009 476.062469,341.811340 476.068634,342.319672 
	C473.916748,342.444977 471.764893,342.679108 469.612976,342.679657 
	C414.801544,342.693848 359.990082,342.659821 305.178711,342.704468 
	C297.389435,342.710815 288.778656,340.348358 284.134613,350.076508 
	C280.909607,347.262695 278.654694,343.791016 275.903473,343.338776 
	C273.399048,342.927124 270.355713,345.794220 266.942200,347.524017 
	C263.934204,342.442444 258.301971,342.782013 252.648636,342.320404 
	C249.804596,342.088196 246.653030,340.304749 244.501984,338.298950 
	C242.022568,335.986969 243.072189,331.207458 245.937454,329.587646 
	C248.817307,327.959595 251.891418,327.842621 253.811584,330.974030 
	C254.593048,332.248444 254.189026,334.249847 254.392578,336.762177 
	C252.895538,335.787781 252.573868,335.667908 252.382233,335.439117 
	C251.188904,334.014343 250.024689,332.565186 248.850815,331.124115 
	C247.897797,332.097137 245.978912,333.379974 246.172989,333.985046 
	C246.753601,335.795135 247.785019,338.054810 249.313828,338.859283 
	C254.688126,341.687531 261.324036,340.056213 267.155487,335.132721 
	C270.076324,336.727264 273.141449,339.786041 275.782623,339.455658 
	C278.464600,339.120178 280.728333,335.440826 283.106140,333.288422 
	C283.585083,333.383453 284.051422,333.335236 284.183380,333.522522 
	C288.661041,339.878448 295.034119,340.392517 302.153656,340.181122 
	C315.737701,339.777771 329.342224,340.064056 343.738586,340.064056 
	C335.277374,335.515076 327.653442,331.275635 319.881195,327.328247 
	C317.711731,326.226349 314.971619,325.193420 312.733917,325.567688 
	C310.343597,325.967468 307.816132,327.706909 306.199371,329.591492 
	C305.473450,330.437683 306.342712,333.435944 307.382629,334.749451 
	C308.127869,335.690735 311.269135,336.197601 311.753082,335.603790 
	C313.103851,333.946411 313.628418,331.615753 315.014038,328.252594 
	C315.624146,330.531067 316.974365,332.801666 316.338074,333.779266 
	C315.048218,335.760864 312.581909,338.412048 310.785156,338.279785 
	C308.311951,338.097809 305.019531,336.136169 303.833374,333.973999 
	C301.074921,328.945862 305.061432,325.776794 309.660522,321.928101 
	C303.798584,321.928101 299.117249,321.928101 293.772247,321.928101 
	C295.602234,325.073151 297.965637,328.068359 293.683685,329.738770 
	C292.353790,330.257538 289.074768,329.132965 288.730988,328.088379 
	C288.122681,326.240265 288.321014,323.001465 289.556488,321.930328 
	C291.505768,320.240387 294.537079,319.279510 297.205872,319.029572 
	C307.950714,318.023285 317.538849,321.415558 326.266418,327.549988 
	C334.978394,333.673462 344.473480,337.894989 355.122040,339.215912 
	C356.548767,339.392914 358.016327,339.240265 359.729614,339.240265 
	C359.123627,334.981934 358.253296,330.529449 363.333405,329.060822 
	C365.126160,328.542572 367.894714,329.512604 369.454468,330.758606 
	C370.444794,331.549622 370.028290,334.101746 370.282410,336.190735 
	C368.819000,335.864044 368.543854,335.870575 368.511749,335.785461 
	C367.762878,333.799835 368.222351,330.602692 364.720703,331.250244 
	C363.650330,331.448212 361.884827,333.651031 362.098114,334.051697 
	C363.147278,336.022339 364.467041,338.834076 366.215637,339.276550 
	C373.795441,341.194550 380.967010,339.163422 387.155090,336.088959 
	C386.316132,332.353333 384.603210,328.879211 385.135773,325.792542 
	C385.567291,323.291290 388.320160,320.251099 390.753296,319.334747 
	C392.667206,318.613892 396.864258,320.080658 397.865051,321.826538 
	C399.019958,323.841248 398.274567,327.392181 397.423492,329.968506 
	C396.742432,332.030121 394.668762,333.631653 393.221832,335.426575 
	C397.739777,340.522858 403.721344,341.292847 409.104156,335.626709 
	C406.789978,330.944397 399.364258,327.299103 405.225586,320.739227 
	C407.919586,317.724121 411.613678,318.204193 414.752869,320.505188 
	C418.663147,323.371460 418.611176,327.832886 414.704041,335.644958 
	C421.127075,339.232605 427.972198,340.574158 435.237305,339.708038 
	C436.489227,339.558777 438.086395,338.989166 438.754761,338.060211 
	C439.692810,336.756439 440.300720,334.925934 440.266541,333.337585 
	C440.250214,332.577942 437.924316,331.026642 437.523712,331.271606 
	C436.229858,332.062927 435.324921,333.505676 434.313354,334.733002 
	C434.032898,335.073242 433.902466,335.537170 433.671021,336.010101 
	C431.384735,333.295380 431.393707,331.305908 433.861725,329.659393 
	C436.762512,327.724121 439.957764,327.905853 441.724945,330.849731 
	C442.836792,332.701965 442.373016,335.500061 442.359619,338.409424 
	C442.559418,339.140259 443.015747,339.335510 443.472076,339.530731 
M387.121918,326.630371 
	C388.000854,329.084869 388.879822,331.539337 389.758759,333.993835 
	C390.527222,334.046906 391.295654,334.100006 392.064117,334.153107 
	C393.604950,330.741272 395.300323,327.381500 396.490479,323.851440 
	C396.638763,323.411591 393.593903,321.011078 392.918030,321.341034 
	C390.782318,322.383545 389.069214,324.291718 387.121918,326.630371 
M414.998596,329.102814 
	C415.617462,325.414978 414.931946,322.133911 410.786102,321.435272 
	C409.352753,321.193726 406.438904,322.693665 406.162628,323.861938 
	C405.027466,328.662109 408.498657,331.171295 412.132050,333.922791 
	C413.184814,332.344635 413.997711,331.126068 414.998596,329.102814 
M286.852112,343.175995 
	C290.098511,338.802673 284.619965,338.808624 283.801025,336.344025 
	C281.774689,337.981934 280.030975,339.391388 278.790863,340.393799 
	C280.618652,342.910980 281.869720,344.633942 283.201477,346.468018 
	C284.622101,345.215302 285.484039,344.455231 286.852112,343.175995 
M269.752716,339.692444 
	C266.594879,336.312408 265.875916,339.715118 264.267151,341.577545 
	C265.477386,342.652435 266.519409,343.577911 268.375458,345.226379 
	C269.169861,343.092163 269.702728,341.660583 269.752716,339.692444 
M291.458374,323.667480 
	C291.458374,325.004669 291.458374,326.341888 291.458374,327.679077 
	C292.054169,327.567657 292.649933,327.456207 293.245728,327.344757 
	C292.961426,326.045837 292.677155,324.746887 291.458374,323.667480 
z"/>
<path fill="#BBD4D3" opacity="1.000000" stroke="none" 
	d="
M152.402893,388.442596 
	C154.880539,399.163025 157.232849,409.482697 159.585159,419.802368 
	C159.964813,419.821716 160.344482,419.841064 160.724136,419.860413 
	C163.144257,411.048309 165.565063,402.236420 167.984207,393.424072 
	C169.260910,388.773376 170.318909,384.044525 171.940384,379.517426 
	C172.431503,378.146210 174.405441,376.642914 175.836472,376.491943 
	C176.885864,376.381195 178.851303,378.179230 179.223083,379.468414 
	C182.909302,392.250732 186.346466,405.104858 189.862701,417.936310 
	C190.030563,418.548859 190.279205,419.139282 191.041092,421.308258 
	C192.561996,415.022766 193.785202,410.165527 194.907440,405.285065 
	C196.771225,397.179718 198.543930,389.053436 200.406326,380.947754 
	C201.503448,376.172729 201.547958,376.182953 207.548248,376.583557 
	C203.536240,394.271088 199.553482,411.829620 195.504150,429.681732 
	C192.775864,429.681732 190.183975,429.681732 186.973770,429.681732 
	C183.369492,416.749817 179.684204,403.527222 175.998917,390.304626 
	C175.676376,390.269653 175.353836,390.234711 175.031296,390.199768 
	C171.369141,403.325989 167.706970,416.452240 163.991440,429.769775 
	C161.249390,429.769775 158.651138,429.769775 155.570404,429.769775 
	C151.550064,412.217438 147.518112,394.614410 143.387985,376.582764 
	C145.682968,376.582764 147.424591,376.582764 149.655884,376.582764 
	C150.518204,380.351898 151.397873,384.196899 152.402893,388.442596 
z"/>
<path fill="#DAA654" opacity="1.000000" stroke="none" 
	d="
M457.039490,461.355133 
	C452.317627,461.355133 447.595795,461.355133 442.873932,461.355133 
	C442.811707,461.787872 442.749512,462.220612 442.687286,462.653351 
	C445.337708,463.822449 447.988098,464.991547 450.836121,466.791199 
	C451.027771,467.937592 451.021759,468.453430 451.015747,468.969238 
	C439.363281,463.360229 427.003540,461.354248 414.172668,461.700012 
	C400.036499,462.080963 385.881287,462.108368 371.768890,462.902832 
	C361.395111,463.486877 352.278961,468.105713 343.682983,473.747803 
	C334.909698,479.506256 325.583099,483.786865 314.759766,482.998749 
	C312.200989,482.812408 309.220551,482.194092 307.354187,480.657135 
	C305.811615,479.386841 305.214996,476.497528 305.055023,474.264252 
	C304.996063,473.441315 307.351105,471.781097 308.668854,471.711548 
	C309.976227,471.642548 311.894501,472.800385 312.545624,473.974335 
	C313.051453,474.886292 312.020416,476.650665 311.672485,478.036133 
	C311.265869,477.999512 310.859253,477.962891 310.452637,477.926270 
	C310.168427,476.679016 309.884216,475.431763 309.562744,474.020905 
	C306.499908,476.597717 306.459259,478.283051 309.771088,479.042847 
	C314.424316,480.110382 319.313721,480.148315 324.102112,480.626617 
	C324.250793,480.068115 324.399445,479.509644 324.548126,478.951141 
	C323.430389,477.628479 321.767578,476.466248 321.320160,474.946289 
	C320.615540,472.552643 319.817810,469.489624 320.751404,467.506622 
	C321.684357,465.524994 324.572418,463.694946 326.836426,463.356293 
	C328.593689,463.093445 331.465210,464.775635 332.452454,466.424805 
	C333.429535,468.057007 332.666046,470.731201 332.666046,472.948334 
	C332.075897,472.964417 331.485779,472.980499 330.895630,472.996582 
	C330.743042,472.195374 330.637665,471.381500 330.427521,470.595673 
	C330.042450,469.155670 330.003113,467.010956 329.071259,466.484344 
	C327.906128,465.825989 325.530701,465.936249 324.511322,466.753906 
	C323.337982,467.695099 322.328674,469.896210 322.568024,471.329712 
	C323.114166,474.600098 325.444885,476.877319 328.959320,476.162506 
	C332.826904,475.375916 336.742706,474.261230 340.283051,472.554321 
	C346.692719,469.464142 352.839325,465.828369 359.519897,462.189362 
	C358.268097,462.016357 357.140320,461.726562 356.012085,461.724640 
	C338.852509,461.695831 321.680450,461.356720 304.542816,461.970703 
	C300.680695,462.109070 296.938782,465.601288 292.248627,468.007721 
	C288.458069,464.795959 283.824310,456.444611 277.561310,467.653656 
	C270.224426,458.087769 260.527710,462.557709 251.780258,462.025055 
	C251.150452,461.986694 250.257248,462.127869 249.897018,462.542358 
	C248.505112,464.143860 247.040283,465.778809 246.164413,467.662537 
	C245.951431,468.120575 248.471420,470.562836 248.727463,470.409546 
	C250.381790,469.419556 251.756897,467.963013 253.706009,466.230652 
	C253.862671,466.624176 254.970367,468.089142 254.608063,468.758514 
	C253.735809,470.370117 252.131256,472.789703 250.901733,472.743958 
	C248.595886,472.658142 245.667725,471.637848 244.231186,469.954315 
	C242.030365,467.375031 242.835175,463.900146 245.626968,462.072021 
	C248.016968,460.507019 251.050949,459.684387 253.914978,459.155975 
	C256.493408,458.680298 259.230743,458.967560 261.892700,459.063812 
	C267.576355,459.269318 273.332825,459.801941 276.416016,454.094757 
	C279.848572,455.836578 282.970856,458.765778 285.643951,458.401184 
	C288.345673,458.032684 290.602325,454.401093 293.700134,451.618561 
	C298.174896,460.970673 306.502686,459.029449 314.163788,459.035522 
	C361.477386,459.072998 408.790955,459.076904 456.562317,459.438904 
	C457.026520,460.308960 457.032990,460.832031 457.039490,461.355133 
M297.080048,461.688843 
	C296.100067,459.653320 295.120056,457.617828 293.660553,454.586365 
	C291.253998,457.173431 289.752838,458.787170 288.759125,459.855408 
	C290.336212,461.867523 291.640869,463.532043 293.089722,465.380554 
	C294.445038,464.147614 295.517853,463.171661 297.080048,461.688843 
M276.919312,463.456360 
	C278.166382,462.592743 279.413422,461.729126 281.014771,460.620148 
	C279.687286,459.163879 278.724091,458.107269 277.284485,456.528015 
	C275.937744,458.065491 274.984711,459.153503 273.907074,460.383759 
	C274.836487,461.406464 275.594635,462.240692 276.919312,463.456360 
z"/>
<path fill="#B6CFCE" opacity="1.000000" stroke="none" 
	d="
M267.456665,425.483765 
	C266.844177,426.779785 266.611084,428.070953 266.317444,429.697449 
	C264.633118,429.697449 262.885651,429.697449 260.759949,429.697449 
	C260.759949,411.055267 260.759949,392.373566 260.759949,373.427124 
	C262.579010,373.427124 264.181763,373.427124 266.466461,373.427124 
	C266.466461,380.461273 266.466461,387.482178 266.466461,394.100983 
	C270.896210,392.237762 274.735687,389.664978 278.855225,389.086365 
	C287.853455,387.822571 294.192841,392.224152 296.099548,401.129211 
	C297.186646,406.206207 297.492706,411.832245 296.517273,416.896484 
	C293.756287,431.231293 279.079834,435.416290 267.456665,425.483765 
M289.502625,418.594666 
	C289.788147,413.678314 290.796936,408.669617 290.183990,403.867950 
	C289.336151,397.226135 284.560455,393.881287 278.354401,394.215240 
	C272.296600,394.541260 267.845184,398.542389 267.083008,404.884827 
	C266.689636,408.158142 266.721405,411.558350 267.118317,414.833679 
	C267.778168,420.279022 271.367004,424.086884 276.050659,424.986328 
	C282.054260,426.139282 285.772278,424.527557 289.502625,418.594666 
z"/>
<path fill="#BBD4D3" opacity="1.000000" stroke="none" 
	d="
M342.185608,375.684235 
	C349.076324,375.733521 355.266327,376.519104 359.701813,382.454803 
	C358.752747,383.813354 357.826416,385.139313 356.638794,386.839355 
	C351.379364,382.114349 345.523499,380.076294 338.691101,381.698822 
	C334.954559,382.586182 332.272797,384.411804 331.923065,388.580872 
	C331.569305,392.797943 333.396393,395.772003 337.358643,397.072815 
	C341.932495,398.574371 346.675415,399.561157 351.248718,401.064240 
	C357.223511,403.027954 361.364868,406.812408 361.974121,413.472076 
	C362.773010,422.205383 358.310669,428.214813 349.694672,430.144867 
	C339.002258,432.540070 329.190582,429.081268 324.033813,420.866669 
	C325.064941,419.569092 326.169189,418.179565 327.750763,416.189301 
	C331.970245,422.442200 337.557404,425.408112 344.781311,425.007538 
	C351.025146,424.661316 354.600525,422.077179 355.321014,417.146667 
	C356.134735,411.578094 353.802643,408.269135 347.411377,406.301605 
	C343.917023,405.225830 340.284607,404.592926 336.802887,403.482910 
	C328.676178,400.892059 324.637726,395.256470 325.492340,388.018555 
	C326.308533,381.105713 331.387787,376.778198 339.776215,375.856293 
	C340.438446,375.783539 341.105164,375.751343 342.185608,375.684235 
z"/>
<path fill="#BBD4D3" opacity="1.000000" stroke="none" 
	d="
M239.953766,411.135529 
	C233.484055,411.135529 227.505737,411.135529 221.547974,411.135529 
	C221.187576,417.968964 223.586716,422.498291 228.399582,424.416351 
	C234.306274,426.770264 240.014923,424.996399 245.251465,418.996307 
	C246.433563,419.695465 247.669693,420.426575 249.119354,421.283966 
	C246.651093,427.953644 241.467255,430.379120 235.177994,430.763397 
	C227.558426,431.229034 220.702164,429.237213 217.187256,421.776794 
	C213.541275,414.038147 213.542618,405.883545 217.166855,398.109009 
	C220.852921,390.201843 230.515427,386.760071 239.411392,389.689606 
	C246.748581,392.105743 251.298111,400.261230 249.692871,408.577148 
	C249.501846,409.566864 247.988098,410.812744 246.915176,411.011963 
	C244.822998,411.400482 242.608810,411.131958 239.953766,411.135529 
M224.103012,397.791107 
	C223.081985,400.290619 222.060959,402.790131 220.816513,405.836639 
	C229.028946,405.836639 236.231415,405.836639 243.578217,405.836639 
	C243.410858,401.121307 242.651337,396.870514 237.958618,394.949585 
	C233.168182,392.988617 228.574768,393.553101 224.103012,397.791107 
z"/>
<path fill="#BAD3D2" opacity="1.000000" stroke="none" 
	d="
M393.203644,430.445618 
	C382.726929,431.555115 375.841980,428.220825 372.447693,420.694580 
	C368.512329,411.968597 370.247986,399.242676 376.151733,393.536804 
	C385.848938,384.164612 403.456909,388.584106 406.755096,401.588745 
	C407.937500,406.250946 407.843140,411.500916 407.152802,416.313538 
	C406.064178,423.903259 401.386139,428.813568 393.203644,430.445618 
M376.906830,412.227264 
	C377.835693,421.373993 381.619965,425.303894 389.418152,425.220123 
	C396.857300,425.140228 400.678864,421.131409 401.452057,412.252960 
	C401.666046,409.795685 401.467926,407.255371 401.108856,404.804413 
	C400.106995,397.965851 395.941742,394.266632 389.417908,394.166779 
	C382.775879,394.065094 378.170868,397.995514 377.142578,404.852081 
	C376.823700,406.978455 376.947205,409.171112 376.906830,412.227264 
z"/>
<path fill="#BCD5D4" opacity="1.000000" stroke="none" 
	d="
M536.220337,403.416748 
	C539.805115,392.034485 546.970886,387.460022 558.185669,389.053833 
	C567.242615,390.341003 572.833130,397.607422 573.129150,408.477173 
	C573.573792,424.801758 563.513062,433.794464 548.945557,430.093536 
	C541.774414,428.271637 536.895142,422.680084 536.085632,414.745392 
	C535.717834,411.140106 536.095337,407.458832 536.220337,403.416748 
M561.906311,396.392426 
	C551.108154,390.976379 542.417480,395.996613 542.087830,408.034058 
	C541.998352,411.301361 542.348633,414.713898 543.249939,417.842957 
	C544.500854,422.185608 547.758057,424.667755 552.381226,425.119965 
	C557.297302,425.600830 561.706482,424.761688 564.577148,420.226654 
	C568.525696,413.988800 567.476013,402.654419 561.906311,396.392426 
z"/>
<path fill="#BBD4D3" opacity="1.000000" stroke="none" 
	d="
M473.435364,411.998779 
	C473.435211,418.144104 473.435211,423.790009 473.435211,429.723816 
	C471.524750,429.723816 469.936920,429.723816 468.081146,429.723816 
	C467.875580,428.199890 467.662567,426.620789 467.381073,424.534027 
	C465.042847,426.358398 463.231598,428.290253 461.011353,429.414124 
	C451.377930,434.290436 441.317200,428.521332 441.033905,417.888519 
	C440.786743,408.612274 440.982391,399.324219 440.982391,389.804565 
	C443.111023,389.804565 444.839691,389.804565 446.970459,389.804565 
	C446.970459,398.236389 446.953033,406.360748 446.975525,414.484955 
	C446.996429,422.039368 448.919403,424.834961 454.356781,425.328796 
	C461.141205,425.945007 466.221558,422.246033 466.862427,415.378052 
	C467.448181,409.101257 467.177887,402.743958 467.268524,396.421906 
	C467.297119,394.429626 467.273010,392.436615 467.273010,389.842102 
	C469.280548,389.752380 471.114746,389.670380 473.435516,389.566620 
	C473.435516,397.253021 473.435516,404.376190 473.435364,411.998779 
z"/>
<path fill="#BDD6D5" opacity="1.000000" stroke="none" 
	d="
M611.932617,419.967072 
	C611.929138,414.307800 611.984863,409.140778 611.904419,403.975891 
	C611.832520,399.357239 610.813538,395.287384 605.366882,394.208038 
	C599.869385,393.118683 593.824585,395.832764 592.301331,400.923767 
	C591.182617,404.662750 591.111023,408.766846 590.937683,412.724182 
	C590.704529,418.046570 590.829285,423.384399 590.771545,428.715271 
	C590.768372,429.005096 590.499756,429.291992 590.248169,429.792023 
	C588.734558,429.792023 587.121887,429.792023 585.159546,429.792023 
	C585.159546,416.555206 585.159546,403.328827 585.159546,389.802063 
	C586.815491,389.802063 588.382263,389.802063 590.217468,389.802063 
	C590.447693,391.569611 590.656006,393.168610 590.734741,393.772736 
	C594.983948,392.146759 599.172913,389.498108 603.574585,389.077881 
	C612.662842,388.210205 617.437500,392.691864 617.799500,401.781830 
	C618.163330,410.918762 617.879517,420.081482 617.879517,429.751099 
	C616.038574,429.848541 614.314514,429.939819 611.932617,430.065887 
	C611.932617,426.679321 611.932617,423.569794 611.932617,419.967072 
z"/>
<path fill="#BAD3D2" opacity="1.000000" stroke="none" 
	d="
M643.743774,393.976105 
	C642.328308,393.978210 641.083984,393.625916 640.377319,394.090851 
	C638.337097,395.433197 635.570679,396.749176 634.823853,398.729614 
	C633.675903,401.773804 635.965271,404.043976 639.025146,404.971741 
	C641.726501,405.790863 644.493713,406.391785 647.228577,407.101715 
	C654.684509,409.037201 658.268677,413.200348 657.877930,419.459442 
	C657.492188,425.638855 653.309448,429.800293 645.867310,430.624603 
	C638.628357,431.426422 631.935059,430.111542 626.863647,423.364990 
	C628.088379,422.000183 629.247986,420.707947 630.910034,418.855835 
	C634.484009,424.304596 639.468933,425.867218 645.345764,425.083557 
	C648.881531,424.612030 651.394043,422.895905 651.663696,419.176605 
	C651.919861,415.642975 649.742615,413.729858 646.478943,412.859406 
	C643.106628,411.960052 639.684631,411.189331 636.399109,410.035645 
	C630.747192,408.051117 628.142090,404.088654 628.585144,398.694275 
	C628.989197,393.773865 632.435730,390.285645 638.012817,389.152679 
	C645.889893,387.552460 651.901245,389.340698 656.185425,394.713867 
	C655.222900,395.759064 654.233337,396.833649 653.506287,397.623108 
	C650.165466,396.326172 647.162964,395.160583 643.743774,393.976105 
z"/>
<path fill="#B7D0CF" opacity="1.000000" stroke="none" 
	d="
M495.385193,401.003235 
	C495.385437,406.159393 495.370178,410.816406 495.389557,415.473328 
	C495.429535,425.075806 498.055176,426.915924 507.457184,423.822723 
	C510.285950,426.802979 509.958710,428.787354 505.788330,430.111450 
	C496.319824,433.117798 489.499969,428.450317 489.245789,418.463776 
	C489.055420,410.984772 489.141632,403.498779 489.081268,396.016083 
	C489.078827,395.715637 488.835846,395.417145 488.675140,395.049530 
	C486.597443,393.507019 480.462402,396.692230 482.657776,389.730713 
	C484.544922,389.538727 486.497925,389.340057 488.977356,389.087860 
	C489.112305,386.567413 489.250671,383.983276 489.404297,381.114319 
	C491.197479,380.738220 492.930359,380.374756 495.091614,379.921417 
	C495.286957,383.094238 495.456116,385.841461 495.657196,389.107178 
	C499.652527,389.107178 503.564697,389.107178 508.058228,389.107178 
	C508.146606,391.097015 508.212860,392.588898 508.304413,394.650208 
	C503.835693,394.650208 499.925598,394.650208 495.385376,394.650208 
	C495.385376,396.958557 495.385376,398.731323 495.385193,401.003235 
z"/>
<path fill="#B7D0CF" opacity="1.000000" stroke="none" 
	d="
M419.221588,404.999054 
	C419.221619,394.226593 419.221619,383.953918 419.221619,373.431396 
	C421.420502,373.431396 423.018890,373.431396 425.179077,373.431396 
	C425.265259,375.210968 425.420959,376.964417 425.423767,378.718140 
	C425.444794,391.865234 425.518158,405.013123 425.391693,418.159027 
	C425.346771,422.825378 426.152191,426.252716 432.291534,425.077545 
	C432.581451,426.683014 432.834167,428.082520 433.055786,429.309723 
	C432.556519,429.768555 432.355347,430.110779 432.084991,430.179016 
	C424.289124,432.147461 419.632355,428.889099 419.284485,420.973846 
	C419.058136,415.824554 419.228760,410.657776 419.221588,404.999054 
z"/>
<path fill="#EBCD6B" opacity="1.000000" stroke="none" 
	d="
M476.524017,342.408936 
	C476.062469,341.811340 476.056274,341.303009 476.054443,340.540222 
	C485.542877,340.229309 495.035614,339.911041 504.507385,340.225250 
	C509.353485,340.386047 513.277283,339.554352 516.190247,335.452240 
	C516.831116,334.549652 517.881042,333.937592 518.963257,333.000732 
	C521.642395,335.400482 523.940308,338.994141 526.841736,339.575409 
	C529.194214,340.046722 532.271973,336.898132 535.554199,335.060516 
	C538.621277,340.459045 544.103943,340.804138 549.898193,339.851685 
	C551.646790,339.564270 553.702820,339.065186 554.863770,337.907013 
	C555.896667,336.876587 556.275085,334.773834 556.168335,333.196777 
	C556.116699,332.433380 553.801392,330.979248 553.358887,331.245728 
	C552.069458,332.022278 551.188660,333.493347 550.190002,334.726410 
	C549.913269,335.068054 549.783997,335.529175 549.587097,335.935486 
	C549.070496,335.791229 548.553894,335.646973 548.037231,335.502716 
	C548.523804,333.629181 548.602600,330.447296 549.578247,330.143188 
	C551.906860,329.417419 555.204895,329.157959 557.117737,330.330872 
	C560.404358,332.346130 559.859375,337.933899 556.309753,340.059570 
	C553.988525,341.449615 551.028992,342.505127 548.377625,342.457886 
	C543.114868,342.364105 538.469299,342.980865 535.092102,348.691406 
	C529.012207,339.185577 523.949463,343.488403 519.682129,349.143616 
	C518.840637,349.073334 518.587891,349.122620 518.528381,349.037231 
	C513.613281,341.981659 506.345337,342.303101 498.945618,342.530762 
	C491.630798,342.755798 484.302032,342.527588 476.524017,342.408936 
M520.522400,337.592682 
	C518.232483,338.430115 515.942627,339.267548 513.818542,340.044373 
	C515.924744,342.852631 517.269165,344.645203 518.610413,346.433563 
	C520.720093,344.440430 522.247498,342.997375 524.003296,341.338531 
	C522.982178,340.217072 522.020447,339.160889 520.522400,337.592682 
M531.791809,341.591003 
	C532.594421,342.741333 533.396973,343.891632 534.572876,345.577057 
	C536.394897,343.730408 537.376160,342.735931 538.215576,341.885132 
	C537.042542,340.019379 536.210754,338.696411 535.219727,337.120178 
	C533.603821,338.932098 532.758545,339.879913 531.791809,341.591003 
z"/>
<path fill="#BBD4D3" opacity="1.000000" stroke="none" 
	d="
M518.138855,398.099030 
	C518.138855,395.147034 518.138855,392.678925 518.138855,389.850311 
	C520.247498,389.850311 521.984314,389.850311 523.989990,389.850311 
	C523.989990,403.159485 523.989990,416.402222 523.989990,429.831238 
	C522.181274,429.831238 520.547974,429.831238 518.138855,429.831238 
	C518.138855,419.389648 518.138855,408.986267 518.138855,398.099030 
z"/>
<path fill="#E9BA5E" opacity="1.000000" stroke="none" 
	d="
M451.280151,469.187866 
	C451.021759,468.453430 451.027771,467.937592 451.069824,467.036499 
	C457.357452,469.680908 463.464722,473.092621 469.937134,475.537659 
	C472.272003,476.419708 475.920288,475.690002 478.127563,474.329926 
	C479.407196,473.541473 479.610016,469.890778 479.106964,467.816895 
	C478.872467,466.850128 475.289154,465.617279 474.167908,466.230743 
	C472.908813,466.919617 472.709595,469.554901 472.063599,471.348602 
	C471.907410,471.782257 471.807648,472.236206 471.668427,472.728394 
	C468.641479,470.237610 468.294983,467.965179 470.473267,465.432159 
	C472.971588,462.526978 477.373352,462.401184 480.269836,465.152191 
	C484.184082,468.869843 483.484528,472.783447 477.539246,479.109131 
	C482.969574,481.621429 488.254395,481.092072 493.289795,478.860779 
	C495.980194,477.668610 496.175873,475.578888 492.690613,473.665405 
	C492.490814,475.349396 492.342987,476.595703 492.190643,477.879761 
	C491.516541,477.770874 490.938599,477.727509 490.937195,477.670013 
	C490.894257,475.922699 490.244507,473.593231 491.113190,472.600769 
	C491.871399,471.734406 494.959442,471.683197 495.913391,472.524506 
	C497.084076,473.557007 498.036713,476.992371 497.465912,477.474701 
	C494.848053,479.687012 491.689819,482.658386 488.679993,482.710236 
	C482.835876,482.810913 476.609344,482.052002 471.187592,479.967865 
	C464.303833,477.321655 458.062744,473.003662 451.280151,469.187866 
z"/>
<path fill="#EFC564" opacity="1.000000" stroke="none" 
	d="
M464.636353,336.746033 
	C464.204926,336.509460 464.145294,336.184753 464.029236,335.367981 
	C469.472900,331.537048 474.936066,328.135284 480.482117,324.874481 
	C488.308258,320.273102 496.788757,318.247406 505.850067,318.993042 
	C509.598633,319.301544 513.435364,320.155792 514.340271,324.478363 
	C514.657898,325.995453 513.565552,328.485168 512.296509,329.437317 
	C511.324158,330.166962 508.539886,329.735657 507.530365,328.788269 
	C506.628082,327.941498 507.051575,325.682098 506.890076,324.045990 
	C507.438202,323.983093 507.986328,323.920197 508.534454,323.857300 
	C508.934204,325.188904 509.333954,326.520538 509.783508,328.018066 
	C512.807190,325.271210 512.565979,322.993317 508.791168,322.261353 
	C503.903198,321.313538 498.797180,321.490234 493.980408,321.194733 
	C496.074585,325.088104 498.147156,327.999084 499.149017,331.240936 
	C499.585388,332.652893 498.192810,335.062775 496.984039,336.459839 
	C494.516327,339.311951 489.519196,339.093750 487.169006,336.399261 
	C485.157318,334.092926 485.649689,331.291382 488.751587,328.991913 
	C488.751587,329.829041 488.619537,330.462769 488.776642,331.014130 
	C489.223785,332.583099 489.358643,334.738586 490.434021,335.484497 
	C491.416779,336.166168 493.942444,335.848907 494.923401,334.987305 
	C496.063416,333.985931 497.026489,331.748810 496.723755,330.335663 
	C495.861450,326.310028 492.735840,324.169250 488.876495,325.548615 
	C482.462280,327.841003 476.304962,330.864777 470.086792,333.684875 
	C468.309967,334.490753 466.696533,335.656891 464.636353,336.746033 
z"/>
<path fill="#FAD96F" opacity="1.000000" stroke="none" 
	d="
M526.992981,464.997375 
	C525.158325,466.688751 523.665039,466.863770 521.966309,464.561157 
	C519.856628,461.701385 517.157288,460.590759 513.500244,463.209900 
	C513.095764,460.895569 513.268555,458.826630 513.441284,456.757660 
	C518.811401,462.701019 521.218994,456.218353 524.660950,454.068848 
	C524.987122,454.112244 525.481506,454.026855 525.609375,454.204865 
	C531.999268,463.099945 541.423035,459.004639 549.698608,460.032166 
	C552.562073,460.387665 556.041260,461.519836 557.744202,463.550842 
	C558.961304,465.002563 558.488586,469.061493 557.252930,470.979919 
	C556.361633,472.363647 552.672852,473.001862 550.800598,472.346863 
	C549.422852,471.864807 548.936462,468.765045 548.150024,466.792999 
	C548.086121,466.632538 548.773376,466.172607 549.094360,465.868164 
	C549.472412,466.075500 549.816895,466.160980 549.998657,466.380920 
	C551.184631,467.815887 552.335449,469.280029 553.497742,470.734650 
	C554.547729,469.821564 556.608276,468.663086 556.457397,468.041595 
	C556.011902,466.207001 555.080811,463.949615 553.610046,463.048096 
	C551.949585,462.030273 549.499817,462.098755 547.386658,462.060120 
	C541.907166,461.959778 536.423950,462.059967 530.117920,462.066162 
	C528.089661,460.355682 526.885803,458.659180 525.509155,456.719177 
	C523.784912,458.211029 522.475769,459.343750 520.997009,460.623230 
	C523.138855,462.185730 525.065918,463.591553 526.992981,464.997375 
z"/>
<path fill="#E9BA5E" opacity="1.000000" stroke="none" 
	d="
M457.496948,461.446960 
	C457.032990,460.832031 457.026520,460.308960 457.026001,459.524109 
	C470.396484,459.220337 483.761078,459.178284 497.597656,459.473969 
	C498.065155,460.290680 498.060669,460.769592 498.056152,461.248535 
	C484.688904,461.345306 471.321655,461.442047 457.496948,461.446960 
z"/>
<path fill="#3D413C" opacity="1.000000" stroke="none" 
	d="
M513.372986,456.659302 
	C513.268555,458.826630 513.095764,460.895569 513.222168,463.562195 
	C513.282166,464.411987 513.043091,464.664124 512.389343,464.512207 
	C509.933502,464.394470 507.892334,464.680786 505.851196,464.967102 
	C505.272644,464.532501 504.694061,464.097931 504.079102,462.976746 
	C505.502167,460.212372 506.740112,457.906616 508.529327,456.168182 
	C509.252136,455.465851 511.179749,456.003479 512.559082,455.976868 
	C512.869629,456.086456 513.118164,456.281158 513.372986,456.659302 
z"/>
<path fill="#B6CFCE" opacity="1.000000" stroke="none" 
	d="
M522.471313,373.454102 
	C523.548950,375.619324 524.664673,377.640503 524.764893,379.710815 
	C524.793640,380.305267 521.576416,381.911774 520.410400,381.491699 
	C518.966370,380.971466 517.286194,378.887299 517.170837,377.367767 
	C516.942261,374.355377 519.199097,373.141846 522.471313,373.454102 
z"/>
<path fill="#FAD96F" opacity="1.000000" stroke="none" 
	d="
M512.294739,455.725220 
	C511.179749,456.003479 509.252136,455.465851 508.529327,456.168182 
	C506.740112,457.906616 505.502167,460.212372 504.031006,462.688629 
	C502.291290,462.539001 500.563263,461.990875 498.445709,461.345642 
	C498.060669,460.769592 498.065155,460.290680 498.060181,459.572327 
	C501.700623,457.520477 505.350555,455.708099 509.791779,453.502777 
	C509.890808,453.589996 510.960602,454.531799 512.294739,455.725220 
z"/>
<path fill="#3D413C" opacity="1.000000" stroke="none" 
	d="
M527.310425,464.951660 
	C525.065918,463.591553 523.138855,462.185730 520.997009,460.623230 
	C522.475769,459.343750 523.784912,458.211029 525.509155,456.719177 
	C526.885803,458.659180 528.089661,460.355682 529.657471,462.151337 
	C529.223572,463.135620 528.425781,464.020782 527.310425,464.951660 
z"/>
<path fill="#FAD96F" opacity="1.000000" stroke="none" 
	d="
M505.942902,465.314575 
	C507.892334,464.680786 509.933502,464.394470 512.268005,464.563019 
	C511.602661,466.106079 510.643921,467.194275 509.345154,468.668396 
	C508.056152,467.497833 507.045380,466.579926 505.942902,465.314575 
z"/>
<path fill="#2C3639" opacity="1.000000" stroke="none" 
	d="
M104.999702,125.118385 
	C85.389839,125.118385 66.279884,125.118385 46.915306,125.118385 
	C46.915306,112.610359 46.915306,100.554893 46.915306,88.161118 
	C60.511124,88.161118 73.945557,88.161118 87.880493,88.161118 
	C87.880493,74.281845 87.880493,60.724300 87.880493,46.874386 
	C100.435730,46.874386 112.492172,46.874386 124.861786,46.874386 
	C124.861786,72.788696 124.861786,98.671951 124.861786,125.118385 
	C118.373840,125.118385 111.936722,125.118385 104.999702,125.118385 
z"/>
<path fill="#2D373A" opacity="1.000000" stroke="none" 
	d="
M83.893707,59.013763 
	C83.893715,67.458992 83.893715,75.407196 83.893715,83.659721 
	C71.415283,83.659721 59.233238,83.659721 46.851868,83.659721 
	C46.851868,71.419533 46.851868,59.356960 46.851868,46.932251 
	C59.031368,46.932251 71.069984,46.932251 83.893707,46.932251 
	C83.893707,50.725025 83.893707,54.620880 83.893707,59.013763 
z"/>
<path fill="#2D373A" opacity="1.000000" stroke="none" 
	d="
M42.332451,29.996632 
	C42.332455,34.279419 42.332455,38.063175 42.332455,42.131290 
	C29.825159,42.131290 17.773149,42.131290 5.411136,42.131290 
	C5.411136,29.915571 5.411136,17.720675 5.411136,5.278341 
	C17.568201,5.278341 29.619034,5.278341 42.332447,5.278341 
	C42.332447,13.379028 42.332447,21.438314 42.332451,29.996632 
z"/>
<path fill="#333C3F" opacity="1.000000" stroke="none" 
	d="
M20.703228,123.013130 
	C20.703424,138.960373 20.703424,154.409454 20.703424,170.155029 
	C15.756741,170.155029 11.321672,170.155029 6.486099,170.155029 
	C6.486099,150.165482 6.486099,130.149750 6.486099,109.844498 
	C11.080821,109.844498 15.633251,109.844498 20.703032,109.844498 
	C20.703032,114.263588 20.703032,118.389290 20.703228,123.013130 
z"/>
<path fill="#313B3E" opacity="1.000000" stroke="none" 
	d="
M134.000000,5.022681 
	C146.282776,5.022681 158.065536,5.022681 170.091522,5.022681 
	C170.091522,10.020504 170.091522,14.602657 170.091522,19.494678 
	C150.060425,19.494678 130.173691,19.494678 109.906143,19.494678 
	C109.906143,14.842818 109.906143,10.269800 109.906143,5.022681 
	C117.655945,5.022681 125.577980,5.022681 134.000000,5.022681 
z"/>
<path fill="#2E383B" opacity="1.000000" stroke="none" 
	d="
M229.020538,45.059353 
	C229.924393,46.691109 230.624939,48.291622 230.667480,49.909443 
	C230.811493,55.386059 230.722412,60.868801 230.722412,66.736191 
	C219.177551,66.736191 207.839142,66.736191 196.228638,66.736191 
	C196.228638,59.703686 196.228638,52.642868 196.228638,45.036045 
	C207.016830,45.036045 217.766251,45.036045 229.020538,45.059353 
z"/>
<path fill="#2E383B" opacity="1.000000" stroke="none" 
	d="
M61.939308,195.874161 
	C64.085869,195.874161 65.741585,195.874161 67.778534,195.874161 
	C67.778534,207.435501 67.778534,218.819687 67.778534,230.500427 
	C60.716946,230.500427 53.640438,230.500427 46.330582,230.500427 
	C46.330582,219.095917 46.330582,207.696243 46.330582,195.874161 
	C51.529961,195.874161 56.489212,195.874161 61.939308,195.874161 
z"/>
<path fill="#2C3639" opacity="1.000000" stroke="none" 
	d="
M19.906151,252.000427 
	C19.906151,246.198853 19.906151,240.896988 19.906151,235.239441 
	C27.157064,235.239441 34.213772,235.239441 41.617573,235.239441 
	C41.617573,246.383881 41.617573,257.728546 41.617573,269.251038 
	C34.507656,269.251038 27.563835,269.251038 19.906151,269.251038 
	C19.906151,263.663971 19.906151,258.082062 19.906151,252.000427 
z"/>
<path fill="#2E383B" opacity="1.000000" stroke="none" 
	d="
M252.000488,18.874153 
	C258.108185,18.874151 263.716034,18.874151 269.466980,18.874151 
	C269.466980,26.380808 269.466980,33.328911 269.466980,40.624435 
	C258.086456,40.624435 246.754593,40.624435 235.163422,40.624435 
	C235.163422,33.547050 235.163422,26.499140 235.163422,18.874153 
	C240.660324,18.874153 246.080505,18.874153 252.000488,18.874153 
z"/>
<path fill="#353E41" opacity="1.000000" stroke="none" 
	d="
M24.864048,186.847656 
	C24.864008,182.590744 24.864008,178.816711 24.864008,174.795563 
	C30.703753,174.795563 36.084461,174.795563 41.724800,174.795563 
	C41.724800,180.296265 41.724800,185.707260 41.724800,191.468048 
	C36.385960,191.468048 31.013466,191.468048 25.193727,191.468048 
	C25.089218,190.156311 24.976654,188.743439 24.864048,186.847656 
z"/>
<path fill="#2F393C" opacity="1.000000" stroke="none" 
	d="
M191.743011,39.612869 
	C186.194778,40.501453 180.692703,40.922672 174.889145,41.366966 
	C174.889145,35.184921 174.889145,29.794710 174.889145,24.136959 
	C180.456116,24.136959 185.860764,24.136959 191.789154,24.136959 
	C191.789154,29.254431 191.789154,34.199966 191.743011,39.612869 
z"/>
<path fill="#2D373A" opacity="1.000000" stroke="none" 
	d="
M251.185303,164.737061 
	C261.791901,165.092728 272.146332,164.213699 281.989868,166.059555 
	C305.984314,170.558990 320.617950,192.464249 318.031403,218.104248 
	C315.895660,239.275345 295.375031,257.501495 273.007843,257.954742 
	C264.892334,258.119202 256.770660,257.981232 248.356277,257.981232 
	C248.248886,256.492157 248.098755,255.377289 248.098251,254.262360 
	C248.085190,225.970963 248.069321,197.679535 248.130005,169.388275 
	C248.133972,167.533752 246.941406,164.666306 251.185303,164.737061 
z"/>
<path fill="#333C3F" opacity="1.000000" stroke="none" 
	d="
M387.157288,326.247681 
	C389.069214,324.291718 390.782318,322.383545 392.918030,321.341034 
	C393.593903,321.011078 396.638763,323.411591 396.490479,323.851440 
	C395.300323,327.381500 393.604950,330.741272 392.064117,334.153107 
	C391.295654,334.100006 390.527222,334.046906 389.758759,333.993835 
	C388.879822,331.539337 388.000854,329.084869 387.157288,326.247681 
z"/>
<path fill="#313B3E" opacity="1.000000" stroke="none" 
	d="
M414.904602,329.505157 
	C413.997711,331.126068 413.184814,332.344635 412.132050,333.922791 
	C408.498657,331.171295 405.027466,328.662109 406.162628,323.861938 
	C406.438904,322.693665 409.352753,321.193726 410.786102,321.435272 
	C414.931946,322.133911 415.617462,325.414978 414.904602,329.505157 
z"/>
<path fill="#3D413C" opacity="1.000000" stroke="none" 
	d="
M286.599060,343.435577 
	C285.484039,344.455231 284.622101,345.215302 283.201477,346.468018 
	C281.869720,344.633942 280.618652,342.910980 278.790863,340.393799 
	C280.030975,339.391388 281.774689,337.981934 283.801025,336.344025 
	C284.619965,338.808624 290.098511,338.802673 286.599060,343.435577 
z"/>
<path fill="#3D413C" opacity="1.000000" stroke="none" 
	d="
M269.994141,339.960724 
	C269.702728,341.660583 269.169861,343.092163 268.375458,345.226379 
	C266.519409,343.577911 265.477386,342.652435 264.267151,341.577545 
	C265.875916,339.715118 266.594879,336.312408 269.994141,339.960724 
z"/>
<path fill="#2C3639" opacity="1.000000" stroke="none" 
	d="
M291.925629,323.557739 
	C292.677155,324.746887 292.961426,326.045837 293.245728,327.344757 
	C292.649933,327.456207 292.054169,327.567657 291.458374,327.679077 
	C291.458374,326.341888 291.458374,325.004669 291.925629,323.557739 
z"/>
<path fill="#2C3639" opacity="1.000000" stroke="none" 
	d="
M443.199158,339.263550 
	C443.015747,339.335510 442.559418,339.140259 442.226807,338.719666 
	C442.542419,338.661682 442.734314,338.829041 443.199158,339.263550 
z"/>
<path fill="#2E383B" opacity="1.000000" stroke="none" 
	d="
M296.835388,461.942261 
	C295.517853,463.171661 294.445038,464.147614 293.089722,465.380554 
	C291.640869,463.532043 290.336212,461.867523 288.759125,459.855408 
	C289.752838,458.787170 291.253998,457.173431 293.660553,454.586365 
	C295.120056,457.617828 296.100067,459.653320 296.835388,461.942261 
z"/>
<path fill="#313B3E" opacity="1.000000" stroke="none" 
	d="
M276.636047,463.265656 
	C275.594635,462.240692 274.836487,461.406464 273.907074,460.383759 
	C274.984711,459.153503 275.937744,458.065491 277.284485,456.528015 
	C278.724091,458.107269 279.687286,459.163879 281.014771,460.620148 
	C279.413422,461.729126 278.166382,462.592743 276.636047,463.265656 
z"/>
<path fill="#2E383B" opacity="1.000000" stroke="none" 
	d="
M289.328674,418.950317 
	C285.772278,424.527557 282.054260,426.139282 276.050659,424.986328 
	C271.367004,424.086884 267.778168,420.279022 267.118317,414.833679 
	C266.721405,411.558350 266.689636,408.158142 267.083008,404.884827 
	C267.845184,398.542389 272.296600,394.541260 278.354401,394.215240 
	C284.560455,393.881287 289.336151,397.226135 290.183990,403.867950 
	C290.796936,408.669617 289.788147,413.678314 289.328674,418.950317 
z"/>
<path fill="#2F393C" opacity="1.000000" stroke="none" 
	d="
M224.355591,397.487732 
	C228.574768,393.553101 233.168182,392.988617 237.958618,394.949585 
	C242.651337,396.870514 243.410858,401.121307 243.578217,405.836639 
	C236.231415,405.836639 229.028946,405.836639 220.816513,405.836639 
	C222.060959,402.790131 223.081985,400.290619 224.355591,397.487732 
z"/>
<path fill="#2E393C" opacity="1.000000" stroke="none" 
	d="
M376.887512,411.780334 
	C376.947205,409.171112 376.823700,406.978455 377.142578,404.852081 
	C378.170868,397.995514 382.775879,394.065094 389.417908,394.166779 
	C395.941742,394.266632 400.106995,397.965851 401.108856,404.804413 
	C401.467926,407.255371 401.666046,409.795685 401.452057,412.252960 
	C400.678864,421.131409 396.857300,425.140228 389.418152,425.220123 
	C381.619965,425.303894 377.835693,421.373993 376.887512,411.780334 
z"/>
<path fill="#2F393C" opacity="1.000000" stroke="none" 
	d="
M562.191895,396.648499 
	C567.476013,402.654419 568.525696,413.988800 564.577148,420.226654 
	C561.706482,424.761688 557.297302,425.600830 552.381226,425.119965 
	C547.758057,424.667755 544.500854,422.185608 543.249939,417.842957 
	C542.348633,414.713898 541.998352,411.301361 542.087830,408.034058 
	C542.417480,395.996613 551.108154,390.976379 562.191895,396.648499 
z"/>
<path fill="#3D413C" opacity="1.000000" stroke="none" 
	d="
M520.790588,337.848694 
	C522.020447,339.160889 522.982178,340.217072 524.003296,341.338531 
	C522.247498,342.997375 520.720093,344.440430 518.610413,346.433563 
	C517.269165,344.645203 515.924744,342.852631 513.818542,340.044373 
	C515.942627,339.267548 518.232483,338.430115 520.790588,337.848694 
z"/>
<path fill="#3D413C" opacity="1.000000" stroke="none" 
	d="
M531.852539,341.209351 
	C532.758545,339.879913 533.603821,338.932098 535.219727,337.120178 
	C536.210754,338.696411 537.042542,340.019379 538.215576,341.885132 
	C537.376160,342.735931 536.394897,343.730408 534.572876,345.577057 
	C533.396973,343.891632 532.594421,342.741333 531.852539,341.209351 
z"/>
</svg>